<svg aria-hidden="true" style="position: absolute; width: 0; height: 0; overflow: hidden;" version="1.1" xmlns="http://www.w3.org/2000/svg" xmlns:xlink="http://www.w3.org/1999/xlink">
<defs>
<symbol id="icon-Vertical-container-2" viewBox="0 0 31 32">
<path d="M15.082 5.139c-1.31 0-2.58 0.466-3.593 1.318s-1.707 2.037-1.965 3.355l-0.101 0.523c-0.027 0.117-0.031 0.238-0.011 0.357s0.063 0.232 0.126 0.333c0.063 0.101 0.146 0.188 0.243 0.256s0.206 0.115 0.321 0.138c0.115 0.024 0.233 0.023 0.348-0.001s0.223-0.072 0.32-0.14c0.096-0.068 0.178-0.156 0.241-0.257s0.105-0.215 0.124-0.333l0.103-0.521c0.193-0.977 0.733-1.845 1.516-2.437s1.75-0.865 2.717-0.766c0.967 0.098 1.864 0.562 2.517 1.3s1.016 1.698 1.019 2.695c0 1.068-0.414 2.093-1.15 2.849s-1.735 1.181-2.777 1.181h-12.655c-0.231 0-0.453 0.094-0.617 0.262s-0.256 0.396-0.256 0.633c0 0.237 0.092 0.465 0.256 0.633s0.386 0.262 0.617 0.262h12.655c1.48-0.037 2.887-0.666 3.922-1.753s1.613-2.545 1.614-4.063c0-1.519-0.578-2.977-1.611-4.064s-2.441-1.717-3.921-1.755zM25.115 13.195c-1.157 0-2.267 0.472-3.086 1.311s-1.278 1.978-1.278 3.165c0 0.237 0.092 0.465 0.256 0.633s0.386 0.262 0.617 0.262c0.231 0 0.453-0.094 0.617-0.262s0.256-0.396 0.256-0.633c0-0.531 0.154-1.050 0.441-1.492s0.697-0.786 1.175-0.989c0.478-0.203 1.005-0.256 1.513-0.153s0.974 0.359 1.341 0.735c0.366 0.376 0.615 0.854 0.716 1.375s0.049 1.061-0.149 1.552c-0.198 0.491-0.534 0.91-0.964 1.205s-0.937 0.453-1.455 0.453h-22.691c-0.231 0-0.453 0.094-0.617 0.262s-0.256 0.396-0.256 0.633c0 0.237 0.092 0.465 0.256 0.633s0.386 0.262 0.617 0.262h17.018c0.579 0.001 1.133 0.238 1.542 0.659s0.637 0.99 0.636 1.584c-0.001 0.593-0.232 1.162-0.642 1.581s-0.965 0.653-1.544 0.652c-0.521 0-1.026-0.189-1.424-0.533s-0.665-0.823-0.752-1.35l-0.009-0.054c-0.016-0.119-0.055-0.233-0.114-0.336s-0.139-0.193-0.233-0.264c-0.094-0.071-0.201-0.122-0.315-0.15s-0.232-0.032-0.347-0.012c-0.115 0.020-0.225 0.063-0.324 0.127s-0.184 0.148-0.25 0.247c-0.067 0.099-0.113 0.21-0.137 0.327s-0.024 0.238-0.002 0.356l0.009 0.054c0.155 0.945 0.632 1.803 1.345 2.422s1.618 0.958 2.552 0.958c1.043 0 2.043-0.423 2.781-1.179s1.154-1.78 1.155-2.849c0-0.829-0.244-1.599-0.662-2.238h2.407c1.157 0 2.267-0.472 3.086-1.311s1.278-1.978 1.278-3.165-0.46-2.325-1.278-3.165c-0.818-0.839-1.928-1.311-3.086-1.311z"></path>
<path d="M15.082 5.139l0.125-4.847-0.063-0.002h-0.063l0.001 4.848zM9.525 9.812l-4.759-0.93-0.001 0.008 4.76 0.922zM9.424 10.335l4.725 1.088 0.019-0.083 0.016-0.083-4.76-0.922zM11.134 10.685l-4.756-0.94-0.017 0.086-0.014 0.087 4.787 0.768zM11.237 10.165v0zM19.006 10.956h4.848v-0.012l-4.849 0.012zM15.079 14.986v4.848h0.002l-0.002-4.848zM1.552 15.881v0zM15.079 16.776v4.848h0.061l0.061-0.002-0.122-4.847zM22.497 17.671v0zM1.552 21.251v0zM19.443 22.146l0.010-4.848h-0.010v4.849zM19.434 26.622l0.010-4.848h-0.014l0.004 4.849zM17.257 24.739l-4.786 0.778 0.001 0.008 0.001 0.008 4.783-0.793zM17.248 24.685l-4.807 0.635 0.009 0.071 0.012 0.071 4.786-0.778zM15.527 24.979l4.786-0.778-0.011-0.070-0.013-0.069-4.761 0.917zM15.536 25.032l-4.786 0.778 0.001 0.008 4.784-0.786zM19.434 28.412l0.002-4.848h-0.003l0.001 4.849zM23.37 24.384l4.848 0.008v-0.008h-4.849zM22.708 22.146v-4.848h-8.955l4.895 7.499 4.060-2.65zM15.081 0.291c-2.464 0.001-4.835 0.877-6.712 2.455l6.24 7.422c0.15-0.126 0.318-0.18 0.474-0.18l-0.002-9.697zM8.37 2.746c-1.874 1.576-3.137 3.748-3.603 6.136l9.517 1.859c0.048-0.247 0.174-0.445 0.326-0.573l-6.24-7.422zM4.765 8.89l-0.101 0.523 9.52 1.844 0.101-0.523-9.52-1.844zM4.699 9.247c-0.169 0.736-0.192 1.498-0.068 2.242l9.565-1.596c0.085 0.507 0.069 1.027-0.047 1.529l-9.45-2.175zM4.63 11.489c0.124 0.744 0.394 1.461 0.799 2.107l8.219-5.146c0.278 0.444 0.462 0.935 0.547 1.442l-9.565 1.596zM5.429 13.597c0.405 0.646 0.938 1.211 1.572 1.656l5.559-7.945c0.441 0.309 0.809 0.7 1.087 1.144l-8.219 5.146zM7.001 15.252c0.635 0.444 1.358 0.758 2.126 0.915l1.948-9.499c0.538 0.11 1.043 0.33 1.485 0.639l-5.559 7.945zM9.128 16.168c0.768 0.158 1.561 0.155 2.328-0.008l-2.012-9.486c0.538-0.114 1.094-0.116 1.632-0.005l-1.948 9.499zM11.456 16.16c0.767-0.163 1.488-0.481 2.12-0.929l-5.611-7.908c0.439-0.312 0.942-0.534 1.48-0.648l2.012 9.486zM13.575 15.231c0.632-0.448 1.161-1.016 1.561-1.665l-8.252-5.093c0.275-0.446 0.64-0.839 1.079-1.151l5.611 7.908zM15.136 13.565c0.4-0.649 0.666-1.367 0.785-2.112l-9.575-1.535c0.081-0.508 0.263-1 0.538-1.445l8.252 5.092zM15.891 11.626l0.103-0.521-9.513-1.88-0.103 0.521 9.513 1.881zM15.993 11.107c-0.034 0.169-0.133 0.349-0.315 0.487l-5.852-7.732c-1.746 1.321-2.925 3.238-3.346 5.361l9.512 1.884zM15.679 11.594c-0.185 0.14-0.436 0.218-0.7 0.191l0.983-9.647c-2.198-0.224-4.385 0.4-6.135 1.724l5.852 7.732zM14.979 11.785c-0.263-0.027-0.48-0.151-0.622-0.31l7.261-6.427c-1.448-1.636-3.459-2.686-5.657-2.91l-0.983 9.647zM14.357 11.474c-0.139-0.156-0.199-0.338-0.199-0.507l9.697-0.023c-0.005-2.162-0.791-4.265-2.237-5.897l-7.261 6.427zM14.158 10.956c0-0.178 0.068-0.373 0.226-0.535l6.945 6.768c1.631-1.674 2.526-3.918 2.526-6.233h-9.697zM14.384 10.421c0.162-0.167 0.409-0.283 0.693-0.284l0.004 9.697c2.367-0.001 4.612-0.967 6.247-2.645l-6.945-6.768zM15.079 10.137h-12.655v9.697h12.655v-9.697zM2.424 10.137c-1.558 0-3.026 0.636-4.089 1.726l6.943 6.769c-0.736 0.754-1.76 1.202-2.854 1.202v-9.697zM-1.664 11.863c-1.059 1.086-1.633 2.533-1.633 4.018h9.697c0 1.009-0.39 2.002-1.121 2.752l-6.943-6.769zM-3.297 15.881c0 1.484 0.574 2.932 1.633 4.018l6.943-6.769c0.732 0.75 1.121 1.742 1.121 2.752h-9.697zM-1.664 19.898c1.063 1.090 2.531 1.726 4.089 1.726v-9.697c1.095 0 2.119 0.447 2.854 1.202l-6.943 6.769zM2.424 21.624h12.655v-9.697h-12.655v9.697zM15.201 21.623c2.784-0.070 5.405-1.253 7.312-3.257l-7.024-6.685c-0.161 0.169-0.355 0.244-0.531 0.249l0.244 9.694zM22.513 18.365c1.903-2 2.949-4.659 2.95-7.404l-9.697-0.003c-0 0.292-0.113 0.549-0.278 0.722l7.024 6.685zM25.463 10.961c0.001-2.745-1.044-5.405-2.946-7.406l-7.028 6.681c0.165 0.174 0.277 0.431 0.277 0.723l9.697 0.003zM22.517 3.554c-1.906-2.005-4.526-3.19-7.31-3.262l-0.25 9.694c0.176 0.005 0.37 0.079 0.531 0.249l7.028-6.681zM25.115 8.347c-2.483 0-4.839 1.013-6.557 2.775l6.943 6.769c-0.081 0.083-0.217 0.153-0.386 0.153v-9.697zM18.558 11.121c-1.714 1.757-2.655 4.116-2.655 6.549h9.697c0 0.060-0.022 0.141-0.099 0.22l-6.943-6.769zM15.903 17.671c0 1.484 0.574 2.932 1.633 4.018l6.943-6.769c0.732 0.75 1.121 1.742 1.121 2.752h-9.697zM17.536 21.689c1.063 1.090 2.531 1.726 4.089 1.726v-9.697c1.095 0 2.119 0.447 2.854 1.202l-6.943 6.769zM21.624 23.415c1.558 0 3.026-0.636 4.089-1.726l-6.943-6.769c0.736-0.755 1.76-1.202 2.854-1.202v9.697zM25.713 21.689c1.059-1.086 1.633-2.533 1.633-4.018h-9.697c0-1.009 0.39-2.002 1.121-2.752l6.943 6.769zM27.346 17.671c0 0.401-0.115 0.802-0.345 1.155l-8.125-5.293c-0.805 1.235-1.227 2.675-1.227 4.138h9.697zM27.001 18.826c-0.23 0.353-0.57 0.648-0.992 0.827l-3.792-8.925c-1.378 0.585-2.536 1.568-3.342 2.805l8.125 5.293zM26.009 19.652c-0.423 0.18-0.895 0.229-1.352 0.135l1.938-9.501c-1.473-0.3-2.998-0.145-4.378 0.441l3.792 8.925zM24.657 19.788c-0.456-0.093-0.858-0.32-1.162-0.631l6.943-6.769c-1.036-1.063-2.371-1.8-3.843-2.101l-1.938 9.501zM23.495 19.157c-0.302-0.31-0.495-0.69-0.572-1.087l9.52-1.846c-0.279-1.438-0.97-2.775-2.005-3.837l-6.943 6.769zM22.923 18.070c-0.077-0.396-0.038-0.807 0.115-1.187l8.991 3.631c0.55-1.361 0.692-2.853 0.413-4.29l-9.52 1.846zM23.038 16.883c0.154-0.381 0.422-0.727 0.791-0.979l5.482 7.999c1.229-0.842 2.169-2.026 2.719-3.389l-8.991-3.631zM23.829 15.904c0.37-0.253 0.817-0.396 1.286-0.396v9.697c1.505 0 2.965-0.458 4.195-1.302l-5.482-7.999zM25.115 15.508h-22.691v9.697h22.691v-9.697zM2.424 15.508c-1.558 0-3.026 0.636-4.089 1.726l6.943 6.769c-0.736 0.754-1.76 1.202-2.854 1.202v-9.697zM-1.664 17.234c-1.059 1.086-1.633 2.533-1.633 4.018h9.697c0 1.009-0.39 2.001-1.121 2.752l-6.943-6.769zM-3.297 21.251c0 1.484 0.574 2.932 1.633 4.018l6.943-6.769c0.732 0.75 1.121 1.742 1.121 2.752h-9.697zM-1.664 25.269c1.063 1.090 2.531 1.726 4.089 1.726v-9.697c1.095 0 2.119 0.447 2.854 1.202l-6.943 6.769zM2.424 26.995h17.018v-9.697h-17.018v9.697zM19.433 26.995c-0.747-0.002-1.438-0.309-1.927-0.812l6.956-6.756c-1.306-1.345-3.105-2.125-5.010-2.129l-0.020 9.697zM17.506 26.183c-0.485-0.499-0.736-1.15-0.734-1.804l9.697 0.019c0.004-1.84-0.705-3.631-2.006-4.971l-6.957 6.756zM16.771 24.379c0.001-0.653 0.254-1.303 0.742-1.801l6.929 6.783c1.307-1.335 2.022-3.123 2.026-4.963l-9.697-0.019zM17.513 22.578c0.491-0.502 1.183-0.806 1.931-0.805l-0.020 9.697c1.905 0.004 3.708-0.77 5.019-2.109l-6.929-6.783zM19.43 21.773c0.659-0 1.279 0.239 1.752 0.649l-6.345 7.333c1.27 1.099 2.899 1.716 4.6 1.715l-0.007-9.697zM21.182 22.422c0.47 0.407 0.763 0.951 0.858 1.523l-9.566 1.587c0.27 1.626 1.096 3.127 2.363 4.223l6.345-7.333zM22.043 23.961l-0.009-0.054-9.572 1.555 0.009 0.054 9.572-1.555zM22.055 24.050c-0.099-0.746-0.343-1.469-0.722-2.126l-8.396 4.851c-0.261-0.451-0.427-0.946-0.494-1.454l9.613-1.27zM21.333 21.923c-0.38-0.658-0.89-1.239-1.505-1.705l-5.851 7.733c-0.427-0.323-0.779-0.725-1.040-1.177l8.396-4.851zM19.828 20.219c-0.616-0.466-1.323-0.805-2.082-0.992l-2.316 9.416c-0.532-0.131-1.025-0.368-1.453-0.692l5.851-7.733zM17.745 19.227c-0.759-0.187-1.549-0.215-2.32-0.084l1.631 9.559c-0.541 0.092-1.095 0.072-1.627-0.059l2.316-9.416zM15.425 19.143c-0.771 0.132-1.503 0.42-2.152 0.842l5.286 8.129c-0.452 0.294-0.963 0.495-1.504 0.588l-1.631-9.559zM13.273 19.985c-0.649 0.422-1.2 0.967-1.626 1.599l8.038 5.425c-0.293 0.434-0.674 0.812-1.125 1.106l-5.286-8.129zM11.647 21.583c-0.426 0.631-0.72 1.337-0.87 2.075l9.503 1.929c-0.102 0.503-0.303 0.987-0.596 1.421l-8.038-5.425zM10.778 23.658c-0.15 0.738-0.154 1.498-0.011 2.237l9.522-1.833c0.097 0.504 0.094 1.022-0.008 1.525l-9.503-1.929zM10.742 25.756l0.009 0.054 9.572-1.555-0.009-0.054-9.572 1.555zM10.752 25.818c0.336 2.045 1.371 3.927 2.953 5.299l6.353-7.326c0.155 0.134 0.237 0.3 0.262 0.455l-9.569 1.571zM13.705 31.117c1.585 1.375 3.614 2.144 5.73 2.143l-0.002-9.697c0.247-0 0.467 0.090 0.625 0.227l-6.353 7.326zM19.432 33.261c2.367 0.001 4.613-0.963 6.251-2.639l-6.935-6.777c0.162-0.165 0.407-0.281 0.689-0.281l-0.004 9.697zM25.682 30.622c1.634-1.672 2.532-3.914 2.536-6.229l-9.697-0.017c0-0.177 0.068-0.37 0.225-0.531l6.935 6.777zM28.218 24.384c0-1.793-0.531-3.48-1.45-4.888l-8.12 5.3c-0.085-0.13-0.127-0.277-0.127-0.412h9.697zM22.708 26.995h2.407v-9.697h-2.407v9.697zM25.115 26.995c2.483 0 4.839-1.013 6.557-2.775l-6.943-6.769c0.081-0.083 0.217-0.153 0.386-0.153v9.697zM31.672 24.22c1.714-1.757 2.655-4.116 2.655-6.549h-9.697c0-0.060 0.022-0.141 0.099-0.22l6.943 6.769zM34.327 17.671c0-2.434-0.941-4.792-2.655-6.549l-6.943 6.769c-0.077-0.079-0.099-0.16-0.099-0.22h9.697zM31.672 11.121c-1.718-1.762-4.074-2.775-6.557-2.775v9.697c-0.169 0-0.305-0.070-0.386-0.153l6.943-6.769z"></path>
</symbol>
<symbol id="icon-Rating-1" viewBox="0 0 32 32">
<path stroke-linejoin="round" stroke-linecap="round" stroke-miterlimit="4" stroke-width="3" d="M24 8l-16 16"></path>
<path stroke-linejoin="round" stroke-linecap="round" stroke-miterlimit="4" stroke-width="3" d="M8 8l16 16"></path>
</symbol>
<symbol id="icon-map-pin" viewBox="0 0 29 32">
<path stroke-linejoin="round" stroke-linecap="round" stroke-miterlimit="4" stroke-width="2.4" d="M26.4 13.333c0 9.333-12 17.333-12 17.333s-12-8-12-17.333c0-3.183 1.264-6.235 3.515-8.485s5.303-3.515 8.485-3.515c3.183 0 6.235 1.264 8.485 3.515s3.515 5.303 3.515 8.485z"></path>
<path stroke-linejoin="round" stroke-linecap="round" stroke-miterlimit="4" stroke-width="2.4" d="M14.4 17.333c2.209 0 4-1.791 4-4s-1.791-4-4-4c-2.209 0-4 1.791-4 4s1.791 4 4 4z"></path>
</symbol>
<symbol id="icon-streamline_microwave" viewBox="0 0 32 32">
<path stroke-linejoin="round" stroke-linecap="round" stroke-miterlimit="4" stroke-width="2.24" d="M29.714 5.714h-27.429c-0.303 0-0.594 0.12-0.808 0.335s-0.335 0.505-0.335 0.808v18.286c0 0.303 0.12 0.594 0.335 0.808s0.505 0.335 0.808 0.335h27.429c0.303 0 0.594-0.12 0.808-0.335s0.335-0.505 0.335-0.808v-18.286c0-0.303-0.12-0.594-0.335-0.808s-0.505-0.335-0.808-0.335z"></path>
<path stroke-linejoin="round" stroke-linecap="round" stroke-miterlimit="4" stroke-width="2.24" d="M25.143 11.428h1.143M25.143 16h1.143M19.428 10.286h-12.571c-0.303 0-0.594 0.12-0.808 0.335s-0.335 0.505-0.335 0.808v9.143c0 0.303 0.12 0.594 0.335 0.808s0.505 0.335 0.808 0.335h12.571c0.303 0 0.594-0.12 0.808-0.335s0.335-0.505 0.335-0.808v-9.143c0-0.303-0.12-0.594-0.335-0.808s-0.505-0.335-0.808-0.335z"></path>
</symbol>
<symbol id="icon-ion_water-outline" viewBox="0 0 32 32">
<path stroke-linejoin="miter" stroke-linecap="butt" stroke-miterlimit="10" stroke-width="2.4" d="M25 20c0 5.523-3.477 9-9 9s-9-3.477-9-9c0-5.927 6.452-13.928 8.431-16.242 0.070-0.082 0.158-0.148 0.256-0.194s0.205-0.069 0.314-0.069c0.108 0 0.215 0.023 0.314 0.069s0.186 0.111 0.256 0.194c1.978 2.314 8.43 10.316 8.43 16.242z"></path>
<path stroke-linejoin="round" stroke-linecap="round" stroke-miterlimit="4" stroke-width="2.4" d="M21.5 20.5c0 1.193-0.474 2.338-1.318 3.182s-1.988 1.318-3.182 1.318"></path>
</symbol>
<symbol id="icon-mdi_gas" viewBox="0 0 32 32">
<path d="M25.072 13.991c-0.368-0.453-0.816-0.846-1.232-1.239-1.072-0.907-2.288-1.556-3.311-2.508-2.384-2.206-2.912-5.848-1.392-8.644-1.52 0.348-2.848 1.133-3.983 1.995-4.143 3.143-5.775 8.689-3.823 13.449 0.064 0.151 0.128 0.302 0.128 0.499 0 0.332-0.24 0.635-0.56 0.756-0.368 0.151-0.752 0.060-1.056-0.181-0.091-0.071-0.167-0.159-0.224-0.257-1.808-2.161-2.096-5.259-0.88-7.737-2.672 2.055-4.127 5.531-3.919 8.81 0.096 0.756 0.192 1.511 0.464 2.267 0.224 0.907 0.656 1.813 1.136 2.614 1.728 2.614 4.719 4.488 7.935 4.866 3.423 0.408 7.087-0.181 9.71-2.418 2.927-2.508 3.951-6.528 2.448-9.974l-0.208-0.393c-0.336-0.695-1.232-1.904-1.232-1.904zM20.017 23.512c-0.448 0.363-1.184 0.756-1.76 0.907-1.792 0.604-3.583-0.242-4.639-1.239 1.904-0.423 3.039-1.753 3.375-3.098 0.272-1.209-0.24-2.206-0.448-3.37-0.192-1.118-0.16-2.070 0.272-3.113 0.304 0.574 0.624 1.148 1.008 1.602 1.232 1.511 3.167 2.176 3.583 4.231 0.064 0.212 0.096 0.423 0.096 0.65 0.048 1.239-0.528 2.599-1.488 3.43z"></path>
</symbol>
<symbol id="icon-arcticons_freezer" viewBox="0 0 32 32">
<path stroke-linejoin="round" stroke-linecap="round" stroke-miterlimit="4" stroke-width="2.0800" d="M23.4 3h-14.793c-1.105 0-2 0.895-2 2v20.387c0 1.104 0.895 2 2 2h14.793c1.104 0 2-0.896 2-2v-20.387c0-1.105-0.896-2-2-2z"></path>
<path stroke-linejoin="round" stroke-linecap="round" stroke-miterlimit="4" stroke-width="2.0800" d="M6.607 13.127h18.787M10.313 10.567v-4.040M10.313 19.44v-4.040M8.427 27.387v0.7c0 0.241 0.095 0.472 0.265 0.643s0.4 0.268 0.642 0.27h1.647c0.242 0 0.475-0.096 0.646-0.268s0.268-0.404 0.268-0.646v-0.7M20.1 27.387v0.7c0 0.242 0.096 0.474 0.268 0.646s0.404 0.268 0.646 0.268h1.653c0.242 0 0.474-0.096 0.646-0.268s0.268-0.404 0.268-0.646v-0.7"></path>
</symbol>
<symbol id="icon-mingcute_toilet-paper-line" viewBox="0 0 32 32">
<path d="M24 4c1.939 0 3.269 1.647 4.040 3.313 0.761 1.653 1.224 3.811 1.287 6.145l0.007 0.541v12.667c0 0.18-0.036 0.357-0.106 0.523s-0.173 0.315-0.303 0.439c-0.13 0.125-0.283 0.222-0.451 0.285s-0.347 0.093-0.527 0.086l-0.165-0.019-3.781-0.629-3.781 0.629c-0.16 0.027-0.324 0.024-0.483-0.008l-0.157-0.041-3.579-1.193-3.579 1.193c-0.188 0.063-0.387 0.083-0.583 0.059s-0.385-0.092-0.552-0.197-0.309-0.248-0.414-0.415c-0.105-0.167-0.172-0.356-0.196-0.553l-0.009-0.159v-3.903c-0.708 0.733-1.595 1.236-2.667 1.236-1.939 0-3.269-1.647-4.040-3.313-0.819-1.78-1.293-4.145-1.293-6.687s0.473-4.907 1.293-6.687c0.735-1.592 1.981-3.164 3.78-3.303l0.26-0.011h16zM24 6.667h-12.291c0.12 0.213 0.229 0.429 0.329 0.647 0.821 1.78 1.295 4.145 1.295 6.687v10.817l2.245-0.749c0.274-0.091 0.569-0.091 0.843 0l3.687 1.229 3.673-0.613c0.144-0.024 0.293-0.024 0.437 0l2.448 0.409v-11.093c0-2.245-0.423-4.213-1.049-5.569-0.677-1.471-1.347-1.764-1.617-1.764zM8 6.667c-0.271 0-0.94 0.293-1.617 1.764-0.627 1.356-1.049 3.324-1.049 5.569s0.423 4.213 1.049 5.569c0.677 1.471 1.347 1.764 1.617 1.764s0.94-0.293 1.617-1.764c0.627-1.356 1.049-3.324 1.049-5.569s-0.423-4.213-1.049-5.569c-0.677-1.471-1.347-1.764-1.617-1.764zM8 11.333c0.736 0 1.333 1.193 1.333 2.667s-0.597 2.667-1.333 2.667c-0.736 0-1.333-1.193-1.333-2.667s0.597-2.667 1.333-2.667z"></path>
</symbol>
<symbol id="icon-icon-park-outline_hand-painted-plate" viewBox="0 0 32 32">
<path fill="none" stroke="#101828" style="stroke: var(--color1, #101828)" stroke-linejoin="miter" stroke-linecap="butt" stroke-miterlimit="4" stroke-width="2.4" d="M12 6.667h16c0.354 0 0.693 0.14 0.943 0.391s0.391 0.589 0.391 0.943v17.333c0 0.354-0.14 0.693-0.391 0.943s-0.589 0.391-0.943 0.391h-16M12 6.667h-8c-0.354 0-0.693 0.14-0.943 0.391s-0.39 0.589-0.39 0.943v17.333c0 0.354 0.14 0.693 0.39 0.943s0.589 0.391 0.943 0.391h8M12 6.667v20"></path>
<path fill="none" stroke="#101828" style="stroke: var(--color1, #101828)" stroke-linejoin="round" stroke-linecap="round" stroke-miterlimit="4" stroke-width="2.4" d="M7.333 11.333v2.667M24.667 10.667l-8 11.333"></path>
<path d="M8.667 18c0-0.736-0.597-1.333-1.333-1.333s-1.333 0.597-1.333 1.333c0 0.736 0.597 1.333 1.333 1.333s1.333-0.597 1.333-1.333z"></path>
<path d="M8.667 22c0-0.736-0.597-1.333-1.333-1.333s-1.333 0.597-1.333 1.333c0 0.736 0.597 1.333 1.333 1.333s1.333-0.597 1.333-1.333z"></path>
</symbol>
<symbol id="icon-solar_radio-linear" viewBox="0 0 32 32">
<path stroke-linejoin="miter" stroke-linecap="butt" stroke-miterlimit="4" stroke-width="2.0800" d="M2.667 18.667c0-5.028 0-7.543 1.563-9.104 1.561-1.563 4.076-1.563 9.104-1.563h5.333c5.028 0 7.543 0 9.104 1.563 1.563 1.561 1.563 4.076 1.563 9.104s0 7.543-1.563 9.104c-1.561 1.563-4.076 1.563-9.104 1.563h-5.333c-5.028 0-7.543 0-9.104-1.563-1.563-1.561-1.563-4.076-1.563-9.104z"></path>
<path stroke-linejoin="miter" stroke-linecap="butt" stroke-miterlimit="4" stroke-width="2.0800" d="M6.667 14.667c0-0.707 0.281-1.386 0.781-1.886s1.178-0.781 1.886-0.781h13.333c0.707 0 1.386 0.281 1.886 0.781s0.781 1.178 0.781 1.886-0.281 1.386-0.781 1.886c-0.5 0.5-1.178 0.781-1.886 0.781h-13.333c-0.707 0-1.386-0.281-1.886-0.781s-0.781-1.178-0.781-1.886zM12 22.667c0 0.53-0.211 1.039-0.586 1.414s-0.884 0.586-1.414 0.586-1.039-0.211-1.414-0.586c-0.375-0.375-0.586-0.884-0.586-1.414s0.211-1.039 0.586-1.414 0.884-0.586 1.414-0.586c0.53 0 1.039 0.211 1.414 0.586s0.586 0.884 0.586 1.414z"></path>
<path stroke-linejoin="miter" stroke-linecap="round" stroke-miterlimit="4" stroke-width="2.0800" d="M20 15.333v2M17.333 22.667h6.667M8.667 8l11.333-5.333"></path>
</symbol>
<symbol id="icon-icon-park-outline_cd" viewBox="0 0 32 32">
<path stroke-linejoin="miter" stroke-linecap="butt" stroke-miterlimit="4" stroke-width="2.4" d="M16 28c6.627 0 12-5.373 12-12s-5.373-12-12-12c-6.627 0-12 5.373-12 12s5.373 12 12 12z"></path>
<path stroke-linejoin="miter" stroke-linecap="round" stroke-miterlimit="4" stroke-width="2.4" d="M8.667 16c0-4.050 3.283-7.333 7.333-7.333"></path>
<path stroke-linejoin="miter" stroke-linecap="butt" stroke-miterlimit="4" stroke-width="2.4" d="M16 19.333c1.841 0 3.333-1.492 3.333-3.333s-1.492-3.333-3.333-3.333c-1.841 0-3.333 1.492-3.333 3.333s1.492 3.333 3.333 3.333z"></path>
</symbol>
<symbol id="icon-streamline_hotel-air-conditioner" viewBox="0 0 32 32">
<path stroke-linejoin="round" stroke-linecap="round" stroke-miterlimit="4" stroke-width="2.4" d="M28.571 1.143h-25.143c-0.606 0-1.188 0.241-1.616 0.669s-0.669 1.010-0.669 1.616v11.429c0 0.606 0.241 1.188 0.669 1.616s1.010 0.669 1.616 0.669h25.143c0.606 0 1.188-0.241 1.616-0.669s0.67-1.010 0.67-1.616v-11.429c0-0.606-0.241-1.188-0.67-1.616s-1.010-0.669-1.616-0.669z"></path>
<path stroke-linejoin="round" stroke-linecap="round" stroke-miterlimit="4" stroke-width="2.4" d="M25.143 17.143v-4.571c0-0.606-0.241-1.188-0.67-1.616s-1.010-0.669-1.616-0.669h-13.714c-0.606 0-1.188 0.241-1.616 0.669s-0.669 1.010-0.669 1.616v4.571M5.714 28.572h0.229c0.849 0 1.663-0.337 2.263-0.937s0.937-1.414 0.937-2.263v-2.514M26.286 28.572h-0.229c-0.849 0-1.663-0.337-2.263-0.937s-0.937-1.414-0.937-2.263v-2.514M16 30.857v-8"></path>
</symbol>
<symbol id="icon-Property-1pressed" viewBox="0 0 32 32">
<path fill="#e44848" style="fill: var(--color2, #e44848); stroke: var(--color2, #e44848)" stroke="#e44848" stroke-linejoin="round" stroke-linecap="round" stroke-miterlimit="4" stroke-width="3.0667" d="M27.787 6.147c-0.681-0.681-1.49-1.222-2.379-1.591s-1.844-0.559-2.807-0.559-1.917 0.19-2.807 0.559c-0.89 0.369-1.699 0.909-2.38 1.591l-1.413 1.413-1.413-1.413c-1.376-1.376-3.241-2.148-5.187-2.148s-3.811 0.773-5.187 2.148c-1.376 1.376-2.148 3.241-2.148 5.187s0.773 3.811 2.148 5.187l11.787 11.787 11.787-11.787c0.681-0.681 1.222-1.49 1.591-2.38s0.559-1.844 0.559-2.807-0.19-1.917-0.559-2.807c-0.369-0.89-0.909-1.699-1.591-2.38z"></path>
</symbol>
<symbol id="icon-Property-1Default" viewBox="0 0 32 32">
<path stroke-linejoin="round" stroke-linecap="round" stroke-miterlimit="4" stroke-width="3.0667" d="M27.787 6.147c-0.681-0.681-1.49-1.222-2.379-1.591s-1.844-0.559-2.807-0.559-1.917 0.19-2.807 0.559c-0.89 0.369-1.699 0.909-2.38 1.591l-1.413 1.413-1.413-1.413c-1.376-1.376-3.241-2.148-5.187-2.148s-3.811 0.773-5.187 2.148c-1.376 1.376-2.148 3.241-2.148 5.187s0.773 3.811 2.148 5.187l11.787 11.787 11.787-11.787c0.681-0.681 1.222-1.49 1.591-2.38s0.559-1.844 0.559-2.807-0.19-1.917-0.559-2.807c-0.369-0.89-0.909-1.699-1.591-2.38z"></path>
</symbol>
<symbol id="icon-Button-2" viewBox="0 0 46 32">
<path d="M2.608 1.8h12.409c0.105 0 0.203-0.040 0.278-0.112l1.192-1.163c0.346-0.338 0.807-0.524 1.297-0.524h18.817c0.876 0 1.69 0.425 2.176 1.136l2.255 3.3c0.32 0.468 0.349 1.067 0.077 1.564s-0.8 0.805-1.377 0.805h-9.698v0.956h4.967c1.317 0 2.501 0.763 3.018 1.945l2.908 6.65 2.548 0.994c1.36 0.531 2.24 1.797 2.24 3.227v6.158c0 0.918-0.766 1.666-1.708 1.666h-2.964c-0.345 2.039-2.164 3.599-4.35 3.599s-4.005-1.561-4.35-3.599h-16.203c-0.345 2.039-2.164 3.599-4.35 3.599s-4.005-1.561-4.35-3.599h-5.921c-0.837 0-1.518-0.664-1.518-1.481v-22.576c0-1.403 1.17-2.544 2.608-2.544zM36.692 30.594c1.637 0 2.969-1.299 2.969-2.896s-1.332-2.896-2.969-2.896c-1.637 0-2.969 1.299-2.969 2.896s1.332 2.896 2.969 2.896zM30.034 26.995h2.307c0.006-0.035 0.013-0.070 0.020-0.105 0.005-0.024 0.009-0.047 0.014-0.071 0.012-0.055 0.025-0.11 0.039-0.164 0.003-0.011 0.005-0.023 0.009-0.034 0.017-0.066 0.036-0.13 0.057-0.195 0.006-0.019 0.013-0.037 0.019-0.056 0.015-0.045 0.031-0.090 0.047-0.134 0.009-0.024 0.018-0.047 0.028-0.071 0.015-0.039 0.030-0.078 0.047-0.116 0.010-0.025 0.022-0.050 0.033-0.075 0.016-0.037 0.032-0.072 0.050-0.108 0.013-0.025 0.025-0.050 0.038-0.075 0.017-0.034 0.036-0.069 0.054-0.103 0.013-0.025 0.027-0.049 0.041-0.074 0.019-0.034 0.039-0.067 0.059-0.101 0.014-0.024 0.029-0.047 0.043-0.071 0.022-0.034 0.044-0.067 0.066-0.101 0.015-0.022 0.029-0.044 0.044-0.065 0.025-0.035 0.051-0.070 0.077-0.105 0.013-0.018 0.026-0.037 0.040-0.055 0.036-0.046 0.072-0.090 0.109-0.135 0.005-0.007 0.010-0.014 0.016-0.020 0.043-0.051 0.087-0.1 0.132-0.148 0.014-0.015 0.028-0.029 0.043-0.044 0.032-0.033 0.063-0.066 0.096-0.099 0.018-0.018 0.038-0.035 0.056-0.053 0.029-0.028 0.059-0.056 0.090-0.084 0.020-0.018 0.041-0.036 0.062-0.054 0.030-0.026 0.060-0.051 0.090-0.077l0.066-0.052c0.031-0.024 0.062-0.048 0.093-0.071 0.022-0.017 0.045-0.034 0.069-0.050 0.032-0.023 0.064-0.045 0.097-0.068 0.023-0.015 0.046-0.031 0.069-0.046 0.034-0.023 0.069-0.044 0.104-0.065 0.022-0.014 0.045-0.028 0.068-0.041 0.038-0.023 0.077-0.044 0.116-0.065 0.020-0.011 0.040-0.023 0.059-0.033 0.056-0.029 0.112-0.057 0.168-0.084 0.005-0.002 0.009-0.004 0.013-0.006 0.061-0.029 0.123-0.056 0.186-0.082 0.020-0.008 0.041-0.016 0.061-0.024 0.043-0.017 0.086-0.034 0.13-0.050 0.025-0.009 0.050-0.017 0.075-0.026 0.040-0.014 0.080-0.027 0.12-0.039 0.027-0.008 0.054-0.016 0.082-0.024 0.039-0.011 0.078-0.023 0.118-0.033 0.028-0.007 0.056-0.015 0.085-0.021 0.039-0.009 0.078-0.018 0.118-0.026 0.029-0.006 0.058-0.012 0.087-0.018 0.040-0.007 0.081-0.015 0.122-0.021 0.029-0.005 0.057-0.010 0.086-0.014 0.042-0.006 0.085-0.011 0.128-0.016 0.027-0.003 0.055-0.007 0.082-0.009 0.047-0.004 0.095-0.008 0.143-0.011 0.024-0.002 0.047-0.004 0.070-0.005 0.072-0.004 0.144-0.006 0.216-0.006s0.144 0.002 0.216 0.006c0.024 0.001 0.047 0.003 0.070 0.005 0.048 0.003 0.096 0.006 0.143 0.011 0.028 0.002 0.055 0.006 0.082 0.009 0.043 0.005 0.086 0.010 0.128 0.016 0.029 0.004 0.058 0.008 0.087 0.014 0.041 0.006 0.081 0.014 0.122 0.021 0.029 0.006 0.058 0.012 0.087 0.018 0.040 0.008 0.079 0.017 0.118 0.026 0.029 0.007 0.057 0.014 0.085 0.021 0.039 0.010 0.078 0.021 0.118 0.033 0.028 0.008 0.055 0.016 0.082 0.024 0.040 0.012 0.080 0.026 0.12 0.039 0.025 0.009 0.050 0.017 0.075 0.026 0.044 0.016 0.087 0.033 0.13 0.050 0.020 0.008 0.041 0.016 0.061 0.024 0.062 0.026 0.125 0.053 0.186 0.082 0.005 0.002 0.009 0.005 0.013 0.006 0.057 0.027 0.112 0.055 0.168 0.084 0.020 0.011 0.039 0.022 0.059 0.033 0.039 0.021 0.078 0.043 0.116 0.065 0.023 0.014 0.045 0.028 0.068 0.041 0.035 0.021 0.070 0.043 0.104 0.065 0.023 0.015 0.046 0.031 0.069 0.046 0.033 0.023 0.065 0.044 0.097 0.068 0.023 0.016 0.046 0.033 0.069 0.050 0.031 0.024 0.062 0.047 0.093 0.071l0.066 0.052c0.031 0.025 0.061 0.051 0.090 0.077 0.021 0.018 0.041 0.036 0.062 0.054 0.031 0.028 0.060 0.056 0.090 0.084 0.018 0.017 0.037 0.035 0.056 0.053 0.033 0.033 0.065 0.066 0.096 0.099 0.014 0.015 0.029 0.029 0.043 0.044 0.045 0.048 0.089 0.098 0.132 0.148 0.006 0.007 0.011 0.014 0.016 0.020 0.037 0.044 0.073 0.089 0.109 0.135 0.014 0.018 0.027 0.037 0.040 0.055 0.026 0.035 0.052 0.070 0.077 0.105 0.015 0.021 0.029 0.043 0.044 0.065 0.022 0.034 0.044 0.067 0.066 0.101 0.014 0.024 0.029 0.047 0.043 0.071 0.020 0.033 0.040 0.067 0.059 0.101 0.014 0.025 0.028 0.049 0.041 0.074 0.018 0.034 0.037 0.069 0.054 0.103 0.013 0.025 0.025 0.050 0.038 0.075 0.017 0.036 0.033 0.071 0.050 0.108 0.011 0.025 0.023 0.049 0.033 0.075 0.017 0.038 0.032 0.077 0.047 0.116 0.010 0.024 0.019 0.047 0.028 0.071 0.016 0.044 0.032 0.089 0.047 0.134 0.006 0.019 0.013 0.038 0.019 0.056 0.020 0.064 0.039 0.129 0.056 0.195 0.003 0.011 0.006 0.023 0.009 0.034 0.014 0.055 0.027 0.109 0.039 0.164 0.005 0.024 0.009 0.047 0.014 0.071 0.007 0.035 0.014 0.069 0.020 0.105h2.963c0.147 0 0.266-0.116 0.266-0.26v-2.946h-1.124v-1.406h1.124v-1.806c0-0.851-0.523-1.606-1.333-1.922l-2.697-1.052h-10.209v9.392zM30.034 16.197h9.257l-2.598-5.939c-0.29-0.662-0.954-1.090-1.692-1.090h-4.967v7.030zM11.789 30.594c1.637 0 2.969-1.299 2.969-2.896s-1.332-2.896-2.969-2.896c-0.051 0-0.102 0.001-0.153 0.004-1.364 0.067-2.488 1.038-2.756 2.309-0.010 0.047-0.019 0.095-0.027 0.143-0.015 0.096-0.025 0.193-0.030 0.291-0.003 0.049-0.004 0.099-0.004 0.149 0 1.597 1.332 2.896 2.969 2.896zM1.441 22.383h1.124v1.406h-1.124v3.131c0 0.041 0.035 0.075 0.077 0.075h5.92c0.006-0.035 0.013-0.069 0.020-0.104 0.005-0.024 0.009-0.048 0.014-0.072 0.012-0.054 0.024-0.107 0.038-0.16 0.003-0.012 0.006-0.025 0.009-0.038 0.017-0.065 0.036-0.129 0.056-0.193 0.006-0.020 0.013-0.039 0.020-0.058 0.015-0.044 0.030-0.089 0.046-0.132 0.009-0.025 0.019-0.048 0.028-0.072 0.015-0.038 0.031-0.077 0.046-0.114 0.011-0.026 0.022-0.051 0.034-0.076 0.016-0.036 0.032-0.071 0.050-0.106 0.012-0.026 0.025-0.051 0.038-0.076 0.017-0.034 0.035-0.068 0.054-0.102 0.014-0.025 0.028-0.049 0.042-0.074 0.020-0.034 0.039-0.067 0.059-0.1 0.014-0.024 0.029-0.048 0.044-0.071 0.021-0.034 0.043-0.067 0.066-0.1 0.014-0.023 0.029-0.045 0.044-0.066 0.025-0.035 0.051-0.070 0.076-0.104 0.014-0.019 0.028-0.038 0.042-0.057 0.035-0.044 0.070-0.088 0.106-0.132 0.006-0.008 0.012-0.016 0.018-0.023 0.043-0.051 0.087-0.1 0.132-0.148 0.014-0.015 0.029-0.030 0.043-0.045 0.032-0.033 0.063-0.066 0.096-0.098 0.018-0.018 0.037-0.035 0.056-0.053 0.029-0.028 0.059-0.056 0.089-0.083 0.020-0.018 0.041-0.036 0.062-0.055 0.029-0.025 0.059-0.051 0.090-0.075 0.022-0.018 0.044-0.036 0.066-0.053 0.030-0.024 0.061-0.047 0.092-0.071 0.022-0.017 0.046-0.034 0.069-0.050 0.032-0.023 0.064-0.045 0.096-0.067 0.024-0.016 0.047-0.031 0.070-0.047 0.034-0.023 0.069-0.044 0.103-0.065 0.023-0.014 0.046-0.028 0.069-0.042 0.038-0.023 0.077-0.044 0.116-0.065 0.020-0.011 0.040-0.023 0.061-0.033 0.055-0.029 0.11-0.057 0.167-0.083 0.005-0.002 0.009-0.005 0.014-0.007 0.061-0.029 0.123-0.056 0.186-0.082 0.020-0.008 0.041-0.016 0.061-0.024 0.043-0.017 0.086-0.034 0.13-0.050 0.025-0.009 0.050-0.017 0.076-0.026 0.039-0.014 0.079-0.027 0.119-0.039 0.027-0.008 0.055-0.016 0.082-0.024 0.039-0.011 0.078-0.023 0.118-0.033 0.028-0.007 0.056-0.015 0.085-0.021 0.039-0.009 0.078-0.018 0.118-0.026 0.029-0.006 0.058-0.012 0.087-0.018 0.040-0.007 0.081-0.015 0.122-0.021 0.029-0.005 0.057-0.010 0.086-0.014 0.042-0.006 0.085-0.011 0.128-0.016 0.027-0.003 0.055-0.007 0.082-0.009 0.047-0.004 0.095-0.008 0.143-0.011 0.024-0.002 0.047-0.004 0.070-0.005 0.072-0.004 0.144-0.006 0.216-0.006s0.144 0.002 0.216 0.006c0.024 0.001 0.047 0.003 0.070 0.005 0.048 0.003 0.096 0.006 0.143 0.011 0.028 0.002 0.055 0.006 0.082 0.009 0.043 0.005 0.086 0.010 0.128 0.016 0.029 0.004 0.058 0.008 0.086 0.014 0.041 0.006 0.081 0.014 0.122 0.021 0.029 0.006 0.058 0.012 0.087 0.018 0.040 0.008 0.079 0.017 0.118 0.026 0.029 0.007 0.057 0.014 0.085 0.021 0.039 0.010 0.078 0.021 0.118 0.033 0.027 0.008 0.055 0.016 0.082 0.024 0.040 0.012 0.080 0.026 0.119 0.039 0.025 0.009 0.051 0.017 0.076 0.026 0.044 0.016 0.086 0.033 0.13 0.050 0.020 0.008 0.041 0.016 0.061 0.024 0.062 0.026 0.124 0.053 0.186 0.082 0.005 0.002 0.010 0.005 0.014 0.007 0.056 0.026 0.112 0.054 0.167 0.083 0.021 0.011 0.040 0.022 0.060 0.033 0.039 0.021 0.078 0.043 0.116 0.065 0.023 0.014 0.046 0.028 0.069 0.042 0.035 0.021 0.069 0.042 0.103 0.065 0.023 0.015 0.046 0.031 0.070 0.047 0.032 0.022 0.065 0.044 0.096 0.067 0.023 0.016 0.046 0.033 0.069 0.050 0.031 0.024 0.062 0.047 0.092 0.071 0.023 0.017 0.044 0.035 0.066 0.053 0.031 0.025 0.061 0.050 0.090 0.076 0.021 0.018 0.042 0.036 0.062 0.054 0.030 0.028 0.060 0.056 0.090 0.084 0.018 0.017 0.037 0.035 0.056 0.053 0.032 0.032 0.065 0.065 0.096 0.098 0.014 0.015 0.029 0.029 0.043 0.044 0.045 0.048 0.089 0.098 0.132 0.148 0.006 0.007 0.012 0.015 0.017 0.021 0.036 0.044 0.073 0.088 0.107 0.134 0.014 0.018 0.028 0.037 0.042 0.055 0.026 0.035 0.052 0.070 0.077 0.105 0.015 0.021 0.029 0.044 0.044 0.066 0.023 0.033 0.044 0.066 0.066 0.1 0.015 0.024 0.029 0.047 0.044 0.071 0.020 0.033 0.040 0.067 0.059 0.101 0.014 0.025 0.028 0.049 0.041 0.074 0.019 0.034 0.037 0.069 0.055 0.103 0.013 0.025 0.025 0.050 0.037 0.075 0.017 0.036 0.034 0.072 0.050 0.108 0.012 0.025 0.023 0.049 0.033 0.075 0.017 0.038 0.032 0.077 0.047 0.116 0.009 0.024 0.018 0.047 0.028 0.071 0.017 0.045 0.032 0.090 0.047 0.135 0.006 0.019 0.013 0.037 0.019 0.055 0.020 0.064 0.039 0.129 0.057 0.195 0.002 0.010 0.005 0.021 0.007 0.031 0.014 0.056 0.028 0.111 0.040 0.168 0.005 0.023 0.009 0.046 0.013 0.069 0.007 0.035 0.014 0.070 0.021 0.106h12.453v-20.893c0-0.388 0.323-0.703 0.721-0.703h10.419c0.018 0 0.073 0 0.107-0.062s0.004-0.106-0.006-0.12l-2.255-3.3c-0.218-0.319-0.583-0.51-0.977-0.51h-18.817c-0.105 0-0.204 0.040-0.278 0.112l-1.192 1.163c-0.346 0.338-0.807 0.524-1.297 0.524h-12.409c-0.643 0-1.167 0.511-1.167 1.138v18.039z"></path>
<path d="M5.536 7.198h8.814c1.019 0 1.848 0.809 1.848 1.802v4.1c0 0.994-0.829 1.802-1.848 1.802h-8.815c-1.019 0-1.848-0.809-1.848-1.802v-4.1c0.001-0.994 0.83-1.802 1.848-1.802zM5.129 13.1c0 0.218 0.182 0.396 0.406 0.396h8.814c0.224 0 0.406-0.178 0.406-0.396v-4.1c0-0.218-0.182-0.396-0.406-0.396h-8.815c-0.224 0-0.406 0.178-0.406 0.396l0.001 4.1z"></path>
</symbol>
<symbol id="icon-Button-1" viewBox="0 0 46 32">
<path d="M2.608 1.8h12.409c0.105 0 0.203-0.040 0.278-0.112l1.192-1.163c0.346-0.338 0.807-0.524 1.297-0.524h18.817c0.876 0 1.69 0.425 2.176 1.136l2.255 3.3c0.32 0.468 0.349 1.067 0.077 1.564s-0.8 0.805-1.377 0.805h-9.698v0.956h4.967c1.317 0 2.501 0.763 3.018 1.945l2.908 6.65 2.548 0.994c1.36 0.531 2.24 1.797 2.24 3.227v6.158c0 0.918-0.766 1.666-1.708 1.666h-2.964c-0.345 2.039-2.164 3.599-4.35 3.599s-4.005-1.561-4.35-3.599h-16.203c-0.345 2.039-2.164 3.599-4.35 3.599s-4.005-1.561-4.35-3.599h-5.921c-0.837 0-1.518-0.664-1.518-1.481v-22.576c0-1.403 1.17-2.544 2.608-2.544zM36.692 30.594c1.637 0 2.969-1.299 2.969-2.896s-1.332-2.896-2.969-2.896c-1.637 0-2.969 1.299-2.969 2.896s1.332 2.896 2.969 2.896zM30.034 26.995h2.307c0.006-0.035 0.013-0.070 0.020-0.105 0.005-0.024 0.009-0.047 0.014-0.071 0.012-0.055 0.025-0.11 0.039-0.164 0.003-0.011 0.005-0.023 0.009-0.034 0.017-0.066 0.036-0.13 0.057-0.195 0.006-0.019 0.013-0.037 0.019-0.056 0.015-0.045 0.031-0.090 0.047-0.134 0.009-0.024 0.018-0.047 0.028-0.071 0.015-0.039 0.030-0.078 0.047-0.116 0.010-0.025 0.022-0.050 0.033-0.075 0.016-0.037 0.032-0.072 0.050-0.108 0.013-0.025 0.025-0.050 0.038-0.075 0.017-0.034 0.036-0.069 0.054-0.103 0.013-0.025 0.027-0.049 0.041-0.074 0.019-0.034 0.039-0.067 0.059-0.101 0.014-0.024 0.029-0.047 0.043-0.071 0.022-0.034 0.044-0.067 0.066-0.101 0.015-0.022 0.029-0.044 0.044-0.065 0.025-0.035 0.051-0.070 0.077-0.105 0.013-0.018 0.026-0.037 0.040-0.055 0.036-0.046 0.072-0.090 0.109-0.135 0.005-0.007 0.010-0.014 0.016-0.020 0.043-0.051 0.087-0.1 0.132-0.148 0.014-0.015 0.028-0.029 0.043-0.044 0.032-0.033 0.063-0.066 0.096-0.099 0.018-0.018 0.038-0.035 0.056-0.053 0.029-0.028 0.059-0.056 0.090-0.084 0.020-0.018 0.041-0.036 0.062-0.054 0.030-0.026 0.060-0.051 0.090-0.077l0.066-0.052c0.031-0.024 0.062-0.048 0.093-0.071 0.022-0.017 0.045-0.034 0.069-0.050 0.032-0.023 0.064-0.045 0.097-0.068 0.023-0.015 0.046-0.031 0.069-0.046 0.034-0.023 0.069-0.044 0.104-0.065 0.022-0.014 0.045-0.028 0.068-0.041 0.038-0.023 0.077-0.044 0.116-0.065 0.020-0.011 0.040-0.023 0.059-0.033 0.056-0.029 0.112-0.057 0.168-0.084 0.005-0.002 0.009-0.004 0.013-0.006 0.061-0.029 0.123-0.056 0.186-0.082 0.020-0.008 0.041-0.016 0.061-0.024 0.043-0.017 0.086-0.034 0.13-0.050 0.025-0.009 0.050-0.017 0.075-0.026 0.040-0.014 0.080-0.027 0.12-0.039 0.027-0.008 0.054-0.016 0.082-0.024 0.039-0.011 0.078-0.023 0.118-0.033 0.028-0.007 0.056-0.015 0.085-0.021 0.039-0.009 0.078-0.018 0.118-0.026 0.029-0.006 0.058-0.012 0.087-0.018 0.040-0.007 0.081-0.015 0.122-0.021 0.029-0.005 0.057-0.010 0.086-0.014 0.042-0.006 0.085-0.011 0.128-0.016 0.027-0.003 0.055-0.007 0.082-0.009 0.047-0.004 0.095-0.008 0.143-0.011 0.024-0.002 0.047-0.004 0.070-0.005 0.072-0.004 0.144-0.006 0.216-0.006s0.144 0.002 0.216 0.006c0.024 0.001 0.047 0.003 0.070 0.005 0.048 0.003 0.096 0.006 0.143 0.011 0.028 0.002 0.055 0.006 0.082 0.009 0.043 0.005 0.086 0.010 0.128 0.016 0.029 0.004 0.058 0.008 0.087 0.014 0.041 0.006 0.081 0.014 0.122 0.021 0.029 0.006 0.058 0.012 0.087 0.018 0.040 0.008 0.079 0.017 0.118 0.026 0.029 0.007 0.057 0.014 0.085 0.021 0.039 0.010 0.078 0.021 0.118 0.033 0.028 0.008 0.055 0.016 0.082 0.024 0.040 0.012 0.080 0.026 0.12 0.039 0.025 0.009 0.050 0.017 0.075 0.026 0.044 0.016 0.087 0.033 0.13 0.050 0.020 0.008 0.041 0.016 0.061 0.024 0.062 0.026 0.125 0.053 0.186 0.082 0.005 0.002 0.009 0.005 0.013 0.006 0.057 0.027 0.112 0.055 0.168 0.084 0.020 0.011 0.039 0.022 0.059 0.033 0.039 0.021 0.078 0.043 0.116 0.065 0.023 0.014 0.045 0.028 0.068 0.041 0.035 0.021 0.070 0.043 0.104 0.065 0.023 0.015 0.046 0.031 0.069 0.046 0.033 0.023 0.065 0.044 0.097 0.068 0.023 0.016 0.046 0.033 0.069 0.050 0.031 0.024 0.062 0.047 0.093 0.071l0.066 0.052c0.031 0.025 0.061 0.051 0.090 0.077 0.021 0.018 0.041 0.036 0.062 0.054 0.031 0.028 0.060 0.056 0.090 0.084 0.018 0.017 0.037 0.035 0.056 0.053 0.033 0.033 0.065 0.066 0.096 0.099 0.014 0.015 0.029 0.029 0.043 0.044 0.045 0.048 0.089 0.098 0.132 0.148 0.006 0.007 0.011 0.014 0.016 0.020 0.037 0.044 0.073 0.089 0.109 0.135 0.014 0.018 0.027 0.037 0.040 0.055 0.026 0.035 0.052 0.070 0.077 0.105 0.015 0.021 0.029 0.043 0.044 0.065 0.022 0.034 0.044 0.067 0.066 0.101 0.014 0.024 0.029 0.047 0.043 0.071 0.020 0.033 0.040 0.067 0.059 0.101 0.014 0.025 0.028 0.049 0.041 0.074 0.018 0.034 0.037 0.069 0.054 0.103 0.013 0.025 0.025 0.050 0.038 0.075 0.017 0.036 0.033 0.071 0.050 0.108 0.011 0.025 0.023 0.049 0.033 0.075 0.017 0.038 0.032 0.077 0.047 0.116 0.010 0.024 0.019 0.047 0.028 0.071 0.016 0.044 0.032 0.089 0.047 0.134 0.006 0.019 0.013 0.038 0.019 0.056 0.020 0.064 0.039 0.129 0.056 0.195 0.003 0.011 0.006 0.023 0.009 0.034 0.014 0.055 0.027 0.109 0.039 0.164 0.005 0.024 0.009 0.047 0.014 0.071 0.007 0.035 0.014 0.069 0.020 0.105h2.963c0.147 0 0.266-0.116 0.266-0.26v-2.946h-1.124v-1.406h1.124v-1.806c0-0.851-0.523-1.606-1.333-1.922l-2.697-1.052h-10.209v9.392zM30.034 16.197h9.257l-2.598-5.939c-0.29-0.662-0.954-1.090-1.692-1.090h-4.967v7.030zM11.789 30.594c1.637 0 2.969-1.299 2.969-2.896s-1.332-2.896-2.969-2.896c-0.051 0-0.102 0.001-0.153 0.004-1.364 0.067-2.488 1.038-2.756 2.309-0.010 0.047-0.019 0.095-0.027 0.143-0.015 0.096-0.025 0.193-0.030 0.291-0.003 0.049-0.004 0.099-0.004 0.149 0 1.597 1.332 2.896 2.969 2.896zM1.441 22.383h1.124v1.406h-1.124v3.131c0 0.041 0.035 0.075 0.077 0.075h5.92c0.006-0.035 0.013-0.069 0.020-0.104 0.005-0.024 0.009-0.048 0.014-0.072 0.012-0.054 0.024-0.107 0.038-0.16 0.003-0.012 0.006-0.025 0.009-0.038 0.017-0.065 0.036-0.129 0.056-0.193 0.006-0.020 0.013-0.039 0.020-0.058 0.015-0.044 0.030-0.089 0.046-0.132 0.009-0.025 0.019-0.048 0.028-0.072 0.015-0.038 0.031-0.077 0.046-0.114 0.011-0.026 0.022-0.051 0.034-0.076 0.016-0.036 0.032-0.071 0.050-0.106 0.012-0.026 0.025-0.051 0.038-0.076 0.017-0.034 0.035-0.068 0.054-0.102 0.014-0.025 0.028-0.049 0.042-0.074 0.020-0.034 0.039-0.067 0.059-0.1 0.014-0.024 0.029-0.048 0.044-0.071 0.021-0.034 0.043-0.067 0.066-0.1 0.014-0.023 0.029-0.045 0.044-0.066 0.025-0.035 0.051-0.070 0.076-0.104 0.014-0.019 0.028-0.038 0.042-0.057 0.035-0.044 0.070-0.088 0.106-0.132 0.006-0.008 0.012-0.016 0.018-0.023 0.043-0.051 0.087-0.1 0.132-0.148 0.014-0.015 0.029-0.030 0.043-0.045 0.032-0.033 0.063-0.066 0.096-0.098 0.018-0.018 0.037-0.035 0.056-0.053 0.029-0.028 0.059-0.056 0.089-0.083 0.020-0.018 0.041-0.036 0.062-0.055 0.029-0.025 0.059-0.051 0.090-0.075 0.022-0.018 0.044-0.036 0.066-0.053 0.030-0.024 0.061-0.047 0.092-0.071 0.022-0.017 0.046-0.034 0.069-0.050 0.032-0.023 0.064-0.045 0.096-0.067 0.024-0.016 0.047-0.031 0.070-0.047 0.034-0.023 0.069-0.044 0.103-0.065 0.023-0.014 0.046-0.028 0.069-0.042 0.038-0.023 0.077-0.044 0.116-0.065 0.020-0.011 0.040-0.023 0.061-0.033 0.055-0.029 0.11-0.057 0.167-0.083 0.005-0.002 0.009-0.005 0.014-0.007 0.061-0.029 0.123-0.056 0.186-0.082 0.020-0.008 0.041-0.016 0.061-0.024 0.043-0.017 0.086-0.034 0.13-0.050 0.025-0.009 0.050-0.017 0.076-0.026 0.039-0.014 0.079-0.027 0.119-0.039 0.027-0.008 0.055-0.016 0.082-0.024 0.039-0.011 0.078-0.023 0.118-0.033 0.028-0.007 0.056-0.015 0.085-0.021 0.039-0.009 0.078-0.018 0.118-0.026 0.029-0.006 0.058-0.012 0.087-0.018 0.040-0.007 0.081-0.015 0.122-0.021 0.029-0.005 0.057-0.010 0.086-0.014 0.042-0.006 0.085-0.011 0.128-0.016 0.027-0.003 0.055-0.007 0.082-0.009 0.047-0.004 0.095-0.008 0.143-0.011 0.024-0.002 0.047-0.004 0.070-0.005 0.072-0.004 0.144-0.006 0.216-0.006s0.144 0.002 0.216 0.006c0.024 0.001 0.047 0.003 0.070 0.005 0.048 0.003 0.096 0.006 0.143 0.011 0.028 0.002 0.055 0.006 0.082 0.009 0.043 0.005 0.086 0.010 0.128 0.016 0.029 0.004 0.058 0.008 0.086 0.014 0.041 0.006 0.081 0.014 0.122 0.021 0.029 0.006 0.058 0.012 0.087 0.018 0.040 0.008 0.079 0.017 0.118 0.026 0.029 0.007 0.057 0.014 0.085 0.021 0.039 0.010 0.078 0.021 0.118 0.033 0.027 0.008 0.055 0.016 0.082 0.024 0.040 0.012 0.080 0.026 0.119 0.039 0.025 0.009 0.051 0.017 0.076 0.026 0.044 0.016 0.086 0.033 0.13 0.050 0.020 0.008 0.041 0.016 0.061 0.024 0.062 0.026 0.124 0.053 0.186 0.082 0.005 0.002 0.010 0.005 0.014 0.007 0.056 0.026 0.112 0.054 0.167 0.083 0.021 0.011 0.040 0.022 0.060 0.033 0.039 0.021 0.078 0.043 0.116 0.065 0.023 0.014 0.046 0.028 0.069 0.042 0.035 0.021 0.069 0.042 0.103 0.065 0.023 0.015 0.046 0.031 0.070 0.047 0.032 0.022 0.065 0.044 0.096 0.067 0.023 0.016 0.046 0.033 0.069 0.050 0.031 0.024 0.062 0.047 0.092 0.071 0.023 0.017 0.044 0.035 0.066 0.053 0.031 0.025 0.061 0.050 0.090 0.076 0.021 0.018 0.042 0.036 0.062 0.054 0.030 0.028 0.060 0.056 0.090 0.084 0.018 0.017 0.037 0.035 0.056 0.053 0.032 0.032 0.065 0.065 0.096 0.098 0.014 0.015 0.029 0.029 0.043 0.044 0.045 0.048 0.089 0.098 0.132 0.148 0.006 0.007 0.012 0.015 0.017 0.021 0.036 0.044 0.073 0.088 0.107 0.134 0.014 0.018 0.028 0.037 0.042 0.055 0.026 0.035 0.052 0.070 0.077 0.105 0.015 0.021 0.029 0.044 0.044 0.066 0.023 0.033 0.044 0.066 0.066 0.1 0.015 0.024 0.029 0.047 0.044 0.071 0.020 0.033 0.040 0.067 0.059 0.101 0.014 0.025 0.028 0.049 0.041 0.074 0.019 0.034 0.037 0.069 0.055 0.103 0.013 0.025 0.025 0.050 0.037 0.075 0.017 0.036 0.034 0.072 0.050 0.108 0.012 0.025 0.023 0.049 0.033 0.075 0.017 0.038 0.032 0.077 0.047 0.116 0.009 0.024 0.018 0.047 0.028 0.071 0.017 0.045 0.032 0.090 0.047 0.135 0.006 0.019 0.013 0.037 0.019 0.055 0.020 0.064 0.039 0.129 0.057 0.195 0.002 0.010 0.005 0.021 0.007 0.031 0.014 0.056 0.028 0.111 0.040 0.168 0.005 0.023 0.009 0.046 0.013 0.069 0.007 0.035 0.014 0.070 0.021 0.106h12.453v-20.893c0-0.388 0.323-0.703 0.721-0.703h10.419c0.018 0 0.073 0 0.107-0.062s0.004-0.106-0.006-0.12l-2.255-3.3c-0.218-0.319-0.583-0.51-0.977-0.51h-18.817c-0.105 0-0.204 0.040-0.278 0.112l-1.192 1.163c-0.346 0.338-0.807 0.524-1.297 0.524h-12.409c-0.643 0-1.167 0.511-1.167 1.138v18.039z"></path>
<path d="M20.116 7.198h4.558c0.921 0 1.67 0.731 1.67 1.629v15.046c0 0.388-0.323 0.703-0.721 0.703h-6.456c-0.398 0-0.721-0.315-0.721-0.703v-15.046c-0.001-0.899 0.748-1.629 1.669-1.629zM19.887 23.17h5.015v-8.267h-5.015v8.267zM19.887 13.497h5.015v-4.669c0-0.123-0.103-0.223-0.229-0.223h-4.558c-0.126 0-0.229 0.1-0.229 0.223l0.001 4.669z"></path>
</symbol>
<symbol id="icon-camper" viewBox="0 0 43 32">
<path d="M5.584 1.4h9.652c0.082 0 0.158-0.031 0.216-0.087l0.927-0.905c0.27-0.263 0.628-0.408 1.009-0.408h14.635c0.681 0 1.314 0.33 1.693 0.884l1.754 2.567c0.249 0.364 0.272 0.83 0.060 1.216s-0.622 0.626-1.071 0.626h-7.543v0.744h3.863c1.024 0 1.945 0.594 2.347 1.513l2.262 5.172 1.981 0.773c1.058 0.413 1.742 1.398 1.742 2.51v4.79c0 0.714-0.596 1.296-1.328 1.296h-2.306c-0.268 1.586-1.683 2.799-3.383 2.799s-3.115-1.214-3.383-2.799h-12.603c-0.268 1.586-1.683 2.799-3.383 2.799s-3.115-1.214-3.383-2.799h-4.605c-0.651 0-1.181-0.517-1.181-1.152v-17.559c0-1.091 0.91-1.979 2.028-1.979zM32.094 23.795c1.273 0 2.309-1.011 2.309-2.253s-1.036-2.253-2.309-2.253c-1.273 0-2.309 1.011-2.309 2.253s1.036 2.253 2.309 2.253zM26.915 20.996h1.794c0.005-0.028 0.010-0.054 0.016-0.081 0.004-0.018 0.007-0.037 0.011-0.055 0.009-0.043 0.019-0.085 0.030-0.128 0.002-0.009 0.004-0.017 0.007-0.026 0.014-0.051 0.028-0.101 0.044-0.151 0.004-0.015 0.010-0.029 0.015-0.044 0.012-0.035 0.024-0.070 0.036-0.105 0.007-0.018 0.014-0.037 0.022-0.055 0.012-0.030 0.023-0.060 0.036-0.090 0.008-0.020 0.017-0.039 0.026-0.058 0.013-0.028 0.025-0.056 0.039-0.084 0.010-0.020 0.019-0.039 0.030-0.059 0.013-0.027 0.028-0.054 0.042-0.080 0.010-0.019 0.021-0.038 0.032-0.058 0.015-0.026 0.030-0.052 0.046-0.078 0.011-0.018 0.022-0.037 0.034-0.055 0.017-0.026 0.034-0.052 0.052-0.078 0.012-0.017 0.023-0.034 0.035-0.051 0.019-0.028 0.039-0.055 0.060-0.082 0.010-0.014 0.021-0.029 0.031-0.043 0.028-0.036 0.056-0.070 0.085-0.105 0.004-0.005 0.008-0.011 0.013-0.016 0.033-0.039 0.068-0.078 0.103-0.115 0.011-0.012 0.022-0.023 0.033-0.034 0.025-0.026 0.049-0.052 0.075-0.077 0.014-0.014 0.029-0.028 0.043-0.041 0.023-0.022 0.046-0.044 0.070-0.065 0.016-0.014 0.032-0.028 0.048-0.042 0.023-0.020 0.047-0.040 0.070-0.060l0.051-0.041c0.024-0.019 0.048-0.037 0.072-0.056 0.017-0.013 0.035-0.026 0.053-0.039 0.025-0.018 0.050-0.035 0.075-0.053 0.018-0.012 0.036-0.024 0.054-0.036 0.026-0.017 0.054-0.034 0.081-0.051 0.017-0.011 0.035-0.021 0.053-0.032 0.030-0.017 0.060-0.034 0.091-0.051 0.016-0.009 0.031-0.017 0.046-0.026 0.043-0.023 0.087-0.045 0.131-0.066 0.004-0.001 0.007-0.003 0.010-0.005 0.048-0.022 0.096-0.044 0.144-0.064 0.016-0.007 0.032-0.012 0.048-0.019 0.033-0.013 0.067-0.026 0.101-0.039 0.019-0.007 0.039-0.013 0.058-0.020 0.031-0.011 0.062-0.021 0.093-0.031 0.021-0.006 0.042-0.013 0.064-0.019 0.030-0.009 0.061-0.017 0.091-0.025 0.022-0.006 0.044-0.011 0.066-0.017 0.030-0.007 0.061-0.014 0.092-0.021 0.022-0.005 0.045-0.010 0.068-0.014 0.031-0.006 0.063-0.011 0.095-0.016 0.022-0.004 0.044-0.007 0.067-0.011 0.033-0.005 0.066-0.009 0.1-0.013 0.021-0.002 0.043-0.005 0.064-0.007 0.037-0.003 0.074-0.006 0.111-0.008 0.018-0.001 0.036-0.003 0.055-0.004 0.056-0.003 0.112-0.004 0.168-0.004s0.112 0.001 0.168 0.004c0.018 0 0.036 0.002 0.055 0.004 0.037 0.002 0.075 0.005 0.111 0.008 0.022 0.002 0.043 0.005 0.064 0.007 0.034 0.004 0.067 0.008 0.1 0.013 0.023 0.003 0.045 0.006 0.067 0.011 0.032 0.005 0.063 0.011 0.095 0.016 0.023 0.004 0.045 0.009 0.068 0.014 0.031 0.007 0.061 0.013 0.092 0.021 0.022 0.005 0.044 0.011 0.066 0.017 0.031 0.008 0.061 0.017 0.091 0.025 0.022 0.006 0.043 0.012 0.064 0.019 0.031 0.010 0.062 0.020 0.093 0.031 0.019 0.007 0.039 0.013 0.058 0.020 0.034 0.013 0.068 0.026 0.101 0.039 0.016 0.007 0.032 0.012 0.047 0.019 0.048 0.020 0.097 0.041 0.144 0.064 0.004 0.002 0.007 0.004 0.010 0.005 0.044 0.021 0.087 0.043 0.131 0.066 0.015 0.008 0.031 0.017 0.046 0.026 0.031 0.017 0.061 0.033 0.091 0.051 0.018 0.011 0.035 0.021 0.053 0.032 0.027 0.017 0.054 0.033 0.081 0.051 0.018 0.012 0.036 0.024 0.054 0.036 0.026 0.017 0.051 0.035 0.075 0.053 0.018 0.013 0.036 0.026 0.053 0.039 0.024 0.018 0.048 0.037 0.072 0.056l0.051 0.041c0.024 0.020 0.047 0.039 0.070 0.060 0.016 0.014 0.032 0.028 0.048 0.042 0.024 0.021 0.047 0.043 0.070 0.065 0.014 0.014 0.029 0.027 0.043 0.041 0.026 0.025 0.050 0.051 0.075 0.077 0.011 0.011 0.022 0.022 0.033 0.034 0.035 0.038 0.069 0.076 0.103 0.115 0.004 0.005 0.008 0.011 0.013 0.016 0.029 0.035 0.057 0.069 0.085 0.105 0.011 0.014 0.021 0.028 0.031 0.043 0.021 0.027 0.041 0.054 0.060 0.082 0.012 0.017 0.023 0.034 0.035 0.051 0.017 0.026 0.035 0.052 0.052 0.078 0.011 0.018 0.022 0.037 0.034 0.055 0.016 0.026 0.031 0.052 0.046 0.078 0.011 0.019 0.022 0.038 0.032 0.058 0.014 0.026 0.029 0.053 0.042 0.080 0.010 0.020 0.020 0.039 0.030 0.059 0.013 0.028 0.026 0.055 0.039 0.084 0.009 0.019 0.018 0.038 0.026 0.058 0.013 0.030 0.025 0.060 0.036 0.090 0.008 0.018 0.015 0.037 0.022 0.055 0.013 0.035 0.025 0.070 0.036 0.105 0.005 0.015 0.010 0.029 0.015 0.044 0.016 0.050 0.031 0.1 0.044 0.151 0.003 0.009 0.005 0.017 0.007 0.026 0.011 0.042 0.021 0.085 0.030 0.128 0.004 0.018 0.007 0.037 0.011 0.055 0.005 0.027 0.011 0.054 0.016 0.081h2.305c0.114 0 0.207-0.091 0.207-0.202v-2.291h-0.874v-1.094h0.874v-1.405c0-0.662-0.407-1.249-1.037-1.495l-2.098-0.818h-7.94v7.305zM26.915 12.598h7.2l-2.020-4.62c-0.226-0.515-0.742-0.848-1.316-0.848h-3.863v5.468zM12.725 23.795c1.273 0 2.309-1.011 2.309-2.253s-1.036-2.253-2.309-2.253c-0.040 0-0.079 0.001-0.119 0.003-1.061 0.052-1.935 0.807-2.143 1.796-0.008 0.037-0.015 0.074-0.021 0.111-0.012 0.074-0.019 0.15-0.023 0.227-0.002 0.038-0.003 0.077-0.003 0.116 0 1.242 1.036 2.253 2.309 2.253zM4.676 17.409h0.874v1.094h-0.874v2.435c0 0.032 0.027 0.058 0.060 0.058h4.604c0.005-0.027 0.010-0.054 0.016-0.081 0.004-0.019 0.007-0.038 0.011-0.056 0.009-0.042 0.019-0.084 0.030-0.125 0.003-0.010 0.004-0.020 0.007-0.029 0.013-0.051 0.028-0.101 0.044-0.15 0.005-0.015 0.010-0.031 0.015-0.046 0.012-0.035 0.023-0.069 0.036-0.103 0.007-0.019 0.015-0.038 0.022-0.056 0.012-0.030 0.024-0.060 0.036-0.089 0.009-0.020 0.017-0.040 0.026-0.059 0.013-0.028 0.025-0.055 0.039-0.083 0.009-0.020 0.020-0.040 0.030-0.059 0.013-0.027 0.027-0.053 0.042-0.080 0.011-0.019 0.021-0.038 0.032-0.058 0.015-0.026 0.030-0.052 0.046-0.078 0.011-0.019 0.022-0.037 0.034-0.056 0.017-0.026 0.034-0.052 0.051-0.077 0.011-0.017 0.023-0.035 0.035-0.052 0.019-0.028 0.039-0.054 0.059-0.081 0.011-0.015 0.022-0.030 0.033-0.044 0.027-0.035 0.054-0.069 0.082-0.102 0.005-0.006 0.009-0.012 0.014-0.018 0.034-0.039 0.068-0.078 0.103-0.115 0.011-0.012 0.023-0.023 0.034-0.035 0.025-0.026 0.049-0.051 0.074-0.076 0.014-0.014 0.029-0.028 0.044-0.042 0.023-0.022 0.046-0.043 0.069-0.065 0.016-0.014 0.032-0.028 0.048-0.042 0.023-0.020 0.046-0.039 0.070-0.059 0.017-0.014 0.034-0.028 0.052-0.041 0.023-0.018 0.048-0.037 0.072-0.055 0.018-0.013 0.035-0.026 0.053-0.039 0.025-0.018 0.050-0.035 0.075-0.052 0.018-0.012 0.036-0.024 0.054-0.036 0.026-0.017 0.053-0.034 0.080-0.050 0.018-0.011 0.035-0.022 0.053-0.032 0.030-0.017 0.060-0.034 0.090-0.051 0.016-0.009 0.031-0.017 0.047-0.026 0.043-0.023 0.086-0.044 0.13-0.065 0.004-0.002 0.007-0.004 0.011-0.006 0.048-0.022 0.096-0.044 0.144-0.064 0.016-0.007 0.032-0.012 0.047-0.019 0.034-0.013 0.067-0.026 0.101-0.039 0.019-0.007 0.039-0.013 0.059-0.020 0.030-0.011 0.061-0.021 0.093-0.031 0.021-0.006 0.043-0.013 0.064-0.019 0.030-0.009 0.061-0.017 0.091-0.025 0.022-0.006 0.044-0.011 0.066-0.017 0.030-0.007 0.061-0.014 0.092-0.021 0.022-0.005 0.045-0.010 0.068-0.014 0.031-0.006 0.063-0.011 0.095-0.016 0.022-0.004 0.044-0.007 0.067-0.011 0.033-0.005 0.066-0.009 0.099-0.013 0.021-0.002 0.043-0.005 0.064-0.007 0.037-0.003 0.074-0.006 0.111-0.008 0.018-0.001 0.036-0.003 0.055-0.004 0.056-0.003 0.112-0.004 0.168-0.004s0.112 0.001 0.168 0.004c0.018 0 0.036 0.002 0.055 0.004 0.037 0.002 0.074 0.005 0.111 0.008 0.022 0.002 0.043 0.005 0.064 0.007 0.034 0.004 0.067 0.008 0.1 0.013 0.023 0.003 0.045 0.006 0.067 0.011 0.032 0.005 0.063 0.011 0.095 0.016 0.023 0.004 0.045 0.009 0.068 0.014 0.031 0.007 0.061 0.013 0.092 0.021 0.022 0.005 0.044 0.011 0.066 0.017 0.030 0.008 0.061 0.017 0.091 0.025 0.021 0.006 0.043 0.012 0.064 0.019 0.031 0.010 0.062 0.020 0.093 0.031 0.020 0.007 0.039 0.013 0.059 0.020 0.034 0.013 0.067 0.026 0.101 0.039 0.016 0.007 0.032 0.012 0.048 0.019 0.048 0.020 0.097 0.041 0.144 0.064 0.004 0.002 0.008 0.004 0.011 0.006 0.044 0.021 0.087 0.042 0.13 0.065 0.016 0.008 0.031 0.017 0.047 0.026 0.030 0.017 0.061 0.033 0.090 0.051 0.018 0.011 0.035 0.021 0.053 0.032 0.027 0.016 0.054 0.033 0.080 0.050 0.018 0.012 0.036 0.024 0.054 0.036 0.025 0.017 0.050 0.034 0.075 0.052 0.018 0.013 0.036 0.026 0.053 0.039 0.024 0.018 0.048 0.037 0.072 0.055 0.018 0.014 0.035 0.028 0.052 0.041 0.024 0.019 0.047 0.039 0.070 0.059 0.016 0.014 0.033 0.028 0.048 0.042 0.024 0.021 0.047 0.043 0.070 0.065 0.014 0.014 0.029 0.027 0.043 0.041 0.025 0.025 0.050 0.051 0.075 0.077 0.011 0.011 0.022 0.023 0.033 0.035 0.035 0.038 0.069 0.076 0.103 0.115 0.004 0.006 0.009 0.011 0.013 0.017 0.028 0.034 0.057 0.069 0.083 0.104 0.011 0.014 0.022 0.028 0.032 0.043 0.020 0.027 0.040 0.054 0.060 0.082 0.012 0.017 0.023 0.034 0.034 0.051 0.018 0.026 0.034 0.052 0.051 0.078 0.012 0.018 0.023 0.037 0.034 0.055 0.016 0.026 0.031 0.052 0.046 0.078 0.011 0.019 0.021 0.038 0.032 0.058 0.015 0.026 0.029 0.053 0.043 0.080 0.010 0.020 0.019 0.039 0.029 0.059 0.013 0.028 0.026 0.056 0.039 0.084 0.009 0.019 0.018 0.038 0.026 0.058 0.013 0.030 0.025 0.060 0.037 0.090 0.007 0.018 0.014 0.037 0.021 0.055 0.013 0.035 0.025 0.070 0.036 0.105 0.005 0.015 0.010 0.028 0.015 0.043 0.016 0.050 0.030 0.101 0.044 0.151 0.002 0.008 0.004 0.016 0.005 0.024 0.011 0.043 0.021 0.087 0.031 0.13 0.004 0.017 0.007 0.035 0.010 0.053 0.005 0.028 0.011 0.055 0.016 0.083h9.686v-16.25c0-0.302 0.251-0.547 0.56-0.547h8.103c0.014 0 0.057 0 0.083-0.049s0.003-0.083-0.005-0.094l-1.754-2.567c-0.17-0.248-0.454-0.397-0.76-0.397h-14.635c-0.082 0-0.158 0.031-0.216 0.087l-0.927 0.905c-0.269 0.263-0.628 0.408-1.009 0.408h-9.652c-0.5 0-0.907 0.397-0.907 0.885v14.030z"></path>
<path d="M19.201 5.598h3.545c0.716 0 1.299 0.568 1.299 1.267v11.702c0 0.302-0.251 0.547-0.56 0.547h-5.022c-0.309 0-0.56-0.245-0.56-0.547v-11.702c-0-0.699 0.582-1.267 1.298-1.267zM19.023 18.021h3.901v-6.43h-3.901v6.43zM19.023 10.497h3.901v-3.632c0-0.096-0.080-0.174-0.178-0.174h-3.545c-0.098 0-0.178 0.078-0.178 0.174v3.632h0zM7.861 5.598h6.856c0.792 0 1.437 0.629 1.437 1.402v3.189c0 0.773-0.645 1.402-1.437 1.402h-6.856c-0.792 0-1.437-0.629-1.437-1.402v-3.189c0-0.773 0.645-1.402 1.437-1.402zM7.545 10.189c0 0.17 0.142 0.308 0.316 0.308h6.856c0.174 0 0.316-0.138 0.316-0.308v-3.189c0-0.17-0.142-0.308-0.316-0.308h-6.856c-0.174 0-0.316 0.138-0.316 0.308v3.189h0z"></path>
</symbol>
<symbol id="icon-Rating" viewBox="0 0 32 32">
<path stroke-linejoin="round" stroke-linecap="round" stroke-miterlimit="4" stroke-width="2" d="M5.333 5.333l3.333 3.333M18 8.667c-1.242-1.217-2.914-1.895-4.653-1.886s-3.404 0.703-4.634 1.933-1.924 2.895-1.933 4.634c-0.009 1.739 0.669 3.411 1.886 4.653M20 6.667l-13.333 13.333M18.667 22.667v0.013M13.333 21.333v0.013M17.333 17.333v0.013M21.333 13.333v0.013M14.667 26.667v0.013M22.667 18.667v0.013M26.667 14.667v0.013"></path>
</symbol>
<symbol id="icon-Vertical-container-1" viewBox="0 0 32 32">
<path stroke-linejoin="round" stroke-linecap="round" stroke-miterlimit="4" stroke-width="1.8" d="M24 26h-16c-2.216 0-4-1.784-4-4v-10c0-2.216 1.784-4 4-4h16c2.216 0 4 1.784 4 4v10c0 2.216-1.784 4-4 4z"></path>
<path stroke-linejoin="round" stroke-linecap="round" stroke-miterlimit="4" stroke-width="1.8" d="M12 30h8"></path>
<path stroke-linejoin="round" stroke-linecap="round" stroke-miterlimit="4" stroke-width="1.8" d="M16 8l6-6"></path>
<path stroke-linejoin="round" stroke-linecap="round" stroke-miterlimit="4" stroke-width="1.8" d="M16 8l-6-6"></path>
</symbol>
<symbol id="icon-Vector-4" viewBox="0 0 40 32">
<path d="M19.38 0c-1.876 0-3.695 0.641-5.146 1.812s-2.446 2.801-2.814 4.613l-0.145 0.719c-0.039 0.161-0.044 0.328-0.016 0.49s0.090 0.318 0.18 0.457c0.091 0.139 0.209 0.259 0.347 0.352s0.295 0.158 0.459 0.19c0.165 0.032 0.334 0.032 0.498-0.002s0.32-0.099 0.458-0.193c0.138-0.094 0.255-0.214 0.345-0.354s0.15-0.296 0.177-0.459l0.148-0.716c0.277-1.343 1.051-2.537 2.171-3.351s2.507-1.189 3.892-1.054c1.385 0.135 2.67 0.772 3.606 1.787s1.456 2.335 1.459 3.706c0 1.469-0.593 2.878-1.647 3.917s-2.486 1.623-3.978 1.624h-18.125c-0.332 0-0.649 0.13-0.884 0.36s-0.366 0.544-0.366 0.87c0 0.326 0.132 0.639 0.366 0.87s0.552 0.36 0.884 0.36h18.125c2.12-0.051 4.136-0.916 5.617-2.41s2.311-3.499 2.311-5.587-0.828-4.094-2.308-5.589c-1.48-1.495-3.496-2.361-5.616-2.414zM33.75 11.077c-1.658 0-3.247 0.648-4.419 1.802s-1.831 2.719-1.831 4.351c0 0.326 0.132 0.639 0.366 0.87s0.552 0.36 0.884 0.36 0.649-0.13 0.884-0.36c0.235-0.231 0.366-0.544 0.366-0.87 0-0.73 0.22-1.444 0.632-2.051s0.998-1.080 1.683-1.36c0.685-0.279 1.439-0.353 2.167-0.21s1.396 0.494 1.92 1.011c0.524 0.516 0.882 1.174 1.026 1.891s0.070 1.459-0.213 2.133-0.765 1.251-1.381 1.657c-0.617 0.406-1.342 0.622-2.083 0.622h-32.5c-0.332 0-0.649 0.13-0.884 0.361s-0.366 0.544-0.366 0.87c0 0.326 0.132 0.64 0.366 0.87s0.552 0.36 0.884 0.36h24.375c0.829 0.002 1.623 0.327 2.208 0.906s0.913 1.361 0.911 2.177c-0.002 0.816-0.333 1.598-0.92 2.174s-1.383 0.898-2.212 0.897c-0.746 0.001-1.469-0.259-2.040-0.733s-0.952-1.132-1.078-1.856l-0.012-0.074c-0.023-0.163-0.078-0.32-0.163-0.462s-0.199-0.265-0.333-0.363-0.288-0.168-0.451-0.206c-0.163-0.039-0.332-0.044-0.497-0.017s-0.323 0.086-0.464 0.175c-0.141 0.088-0.263 0.204-0.358 0.339s-0.162 0.288-0.196 0.45c-0.034 0.161-0.035 0.328-0.003 0.489l0.013 0.074c0.222 1.299 0.905 2.479 1.927 3.33s2.317 1.317 3.655 1.317c1.493 0.001 2.926-0.582 3.983-1.621s1.652-2.447 1.655-3.918c0-1.14-0.35-2.198-0.947-3.077h3.447c1.658 0 3.247-0.648 4.419-1.802s1.831-2.719 1.831-4.351-0.658-3.197-1.831-4.351c-1.172-1.154-2.762-1.802-4.419-1.802z"></path>
<path d="M19.38 0l0.247-9.997-0.125-0.003-0.125 0 0.002 10zM11.42 6.425l-9.799-1.994-0.003 0.016 9.803 1.978zM11.275 7.143l9.724 2.331 0.042-0.176 0.036-0.178-9.803-1.978zM13.725 7.626l-9.794-2.017-0.038 0.184-0.031 0.185 9.863 1.647zM13.873 6.91v0zM25 7.998h10v-0.025l-10 0.025zM19.375 13.538v10h0.004l-0.004-10zM0 14.769v0zM19.375 16v10h0.121l0.121-0.003-0.241-9.997zM30 17.231v0zM0 22.154v0zM25.625 23.385l0.020-10h-0.020v10zM25.612 29.538l0.020-10-0.027 0 0.007 10zM22.495 26.949l-9.86 1.669 0.003 0.017 0.003 0.017 9.854-1.703zM22.483 26.875l-9.907 1.363 0.021 0.153 0.026 0.152 9.86-1.669zM20.017 27.279l9.86-1.669-0.025-0.149-0.030-0.148-9.805 1.966zM20.030 27.353l-9.86 1.669 0.003 0.017 9.857-1.686zM25.612 32l0.004-10h-0.006l0.002 10zM31.25 26.462l10 0.018v-0.018h-10zM30.303 23.385v-10h-18.892l10.622 15.623 8.27-5.623zM19.378-10c-4.146 0.001-8.183 1.414-11.424 4.030l12.561 15.563c-0.339 0.273-0.74 0.406-1.133 0.406l-0.004-20zM7.953-5.97c-3.244 2.618-5.496 6.287-6.333 10.401l19.598 3.988c-0.1 0.49-0.362 0.899-0.704 1.175l-12.561-15.563zM1.617 4.447l-0.145 0.719 19.605 3.955 0.145-0.719-19.605-3.955zM1.551 4.812c-0.356 1.485-0.405 3.028-0.143 4.534l19.705-3.425c0.205 1.18 0.167 2.39-0.112 3.553l-19.449-4.663zM1.407 9.346c0.262 1.506 0.827 2.936 1.656 4.207l16.753-10.925c0.648 0.993 1.091 2.112 1.296 3.293l-19.705 3.425zM3.063 13.553c0.829 1.271 1.901 2.353 3.148 3.19l11.152-16.602c0.969 0.651 1.806 1.494 2.453 2.487l-16.753 10.925zM6.211 16.744c1.246 0.837 2.642 1.413 4.103 1.701l3.864-19.623c1.133 0.223 2.216 0.67 3.185 1.32l-11.152 16.602zM10.314 18.445c1.461 0.288 2.966 0.283 4.425-0.014l-3.99-19.598c1.131-0.23 2.296-0.234 3.429-0.011l-3.864 19.623zM14.74 18.43c1.46-0.297 2.852-0.882 4.093-1.727l-11.259-16.53c0.965-0.657 2.045-1.111 3.177-1.341l3.99 19.598zM18.832 16.703c1.241-0.845 2.307-1.935 3.127-3.211l-16.824-10.815c0.641-0.997 1.472-1.846 2.437-2.503l11.259 16.53zM21.96 13.492c0.821-1.277 1.377-2.711 1.629-4.219l-19.727-3.295c0.197-1.181 0.633-2.304 1.274-3.302l16.824 10.815zM23.52 9.643l0.147-0.716-19.589-4.034-0.147 0.716 19.589 4.034zM23.666 8.93c-0.232 1.123-0.871 2.083-1.745 2.719l-11.756-16.18c-3.115 2.263-5.301 5.611-6.087 9.421l19.587 4.041zM21.921 11.649c-0.87 0.632-1.924 0.91-2.959 0.808l1.946-19.905c-3.805-0.372-7.632 0.656-10.743 2.916l11.756 16.18zM18.962 12.457c-1.036-0.101-2.029-0.58-2.773-1.387l14.704-13.557c-2.615-2.837-6.178-4.589-9.985-4.961l-1.946 19.905zM16.189 11.070c-0.748-0.811-1.186-1.895-1.189-3.048l20-0.050c-0.010-3.894-1.488-7.619-4.107-10.46l-14.704 13.557zM15 7.998c0-1.233 0.499-2.383 1.335-3.207l14.035 14.248c2.946-2.902 4.63-6.87 4.63-11.041h-20zM16.335 4.791c0.831-0.819 1.926-1.252 3.036-1.252l0.009 20c4.094-0.002 8.050-1.603 10.991-4.5l-14.035-14.248zM19.375 3.538h-18.125v20h18.125v-20zM1.25 3.538c-2.934 0-5.779 1.146-7.9 3.235l14.032 14.251c-1.652 1.627-3.861 2.514-6.132 2.514v-20zM-6.65 6.773c-2.127 2.094-3.35 4.967-3.35 7.996h20c0 2.376-0.96 4.623-2.618 6.255l-14.032-14.251zM-10 14.769c0 3.029 1.224 5.902 3.35 7.996l14.032-14.251c1.658 1.632 2.618 3.879 2.618 6.255h-20zM-6.65 22.765c2.121 2.089 4.966 3.235 7.9 3.235v-20c2.271 0 4.48 0.887 6.132 2.514l-14.032 14.251zM1.25 26h18.125v-20h-18.125v20zM19.616 25.997c4.68-0.113 9.161-2.022 12.478-5.367l-14.203-14.081c0.354-0.357 0.803-0.536 1.244-0.546l0.482 19.994zM32.094 20.63c3.321-3.35 5.208-7.878 5.21-12.624l-20-0.006c0-0.571 0.228-1.088 0.587-1.45l14.203 14.081zM37.303 8.006c0.002-4.747-1.883-9.276-5.202-12.628l-14.212 14.072c-0.358-0.362-0.586-0.88-0.586-1.45l20 0.006zM32.102-4.622c-3.314-3.347-7.794-5.259-12.474-5.375l-0.494 19.994c-0.44-0.011-0.89-0.19-1.243-0.547l14.212-14.072zM33.75 1.077c-4.26 0-8.376 1.665-11.435 4.677l14.032 14.251c-0.715 0.704-1.652 1.072-2.597 1.072v-20zM22.315 5.754c-3.064 3.017-4.815 7.142-4.815 11.477h20c0 1.071-0.433 2.065-1.153 2.774l-14.032-14.251zM17.5 17.231c0 3.029 1.224 5.902 3.35 7.996l14.032-14.251c1.658 1.632 2.618 3.879 2.618 6.255h-20zM20.85 25.227c2.121 2.089 4.966 3.235 7.9 3.235v-20c2.271 0 4.48 0.887 6.132 2.514l-14.032 14.251zM28.75 28.462c2.934 0 5.779-1.146 7.9-3.235l-14.032-14.251c1.652-1.627 3.861-2.514 6.132-2.514v20zM36.65 25.227c2.126-2.094 3.35-4.967 3.35-7.996h-20c0-2.376 0.96-4.623 2.618-6.255l14.032 14.251zM40 17.231c0 1.282-0.387 2.523-1.093 3.564l-16.549-11.231c-1.531 2.255-2.357 4.924-2.357 7.667h20zM38.907 20.795c-0.705 1.039-1.691 1.826-2.815 2.284l-7.553-18.519c-2.495 1.017-4.652 2.751-6.181 5.004l16.549 11.231zM36.091 23.079c-1.123 0.458-2.35 0.575-3.532 0.344l3.844-19.627c-2.637-0.516-5.372-0.253-7.865 0.764l7.553 18.519zM32.56 23.423c-1.183-0.232-2.29-0.807-3.174-1.677l14.032-14.251c-1.933-1.903-4.376-3.182-7.014-3.698l-3.844 19.627zM29.386 21.746c-0.885-0.872-1.506-2.002-1.76-3.255l19.604-3.96c-0.543-2.686-1.878-5.131-3.812-7.036l-14.032 14.251zM27.626 18.491c-0.253-1.254-0.122-2.553 0.371-3.725l18.435 7.755c1.060-2.521 1.341-5.304 0.798-7.991l-19.604 3.96zM27.997 14.766c0.492-1.17 1.315-2.145 2.34-2.819l10.992 16.708c2.259-1.486 4.043-3.614 5.103-6.134l-18.435-7.755zM30.337 11.947c1.024-0.673 2.211-1.024 3.413-1.024v20c2.685 0 5.323-0.783 7.58-2.268l-10.992-16.708zM33.75 10.923h-32.5v20h32.5v-20zM1.25 10.923c-2.934 0-5.779 1.146-7.9 3.235l14.032 14.251c-1.652 1.627-3.861 2.514-6.132 2.514v-20zM-6.65 14.158c-2.127 2.094-3.35 4.967-3.35 7.996h20c0 2.376-0.96 4.623-2.618 6.255l-14.032-14.251zM-10 22.154c0 3.029 1.224 5.902 3.35 7.996l14.032-14.251c1.658 1.632 2.618 3.879 2.618 6.255h-20zM-6.65 30.15c2.121 2.089 4.966 3.235 7.9 3.235v-20c2.271 0 4.48 0.887 6.132 2.514l-14.032 14.251zM1.25 33.385h24.375v-20h-24.375v20zM25.605 33.385c-1.774-0.003-3.504-0.699-4.803-1.983l14.061-14.223c-2.468-2.44-5.787-3.787-9.219-3.794l-0.039 20zM20.803 31.402c-1.304-1.289-2.063-3.068-2.059-4.954l20 0.041c0.007-3.519-1.407-6.864-3.881-9.309l-14.061 14.223zM18.744 26.447c0.004-1.887 0.77-3.662 2.078-4.945l14.004 14.279c2.483-2.435 3.911-5.775 3.918-9.293l-20-0.041zM20.822 21.502c1.303-1.278 3.036-1.967 4.81-1.964l-0.039 20c3.431 0.007 6.755-1.327 9.233-3.757l-14.004-14.279zM25.605 19.538c1.573-0.001 3.118 0.545 4.357 1.574l-12.779 15.385c2.38 1.977 5.37 3.043 8.437 3.041l-0.014-20zM29.962 21.113c1.243 1.032 2.103 2.491 2.387 4.133l-19.708 3.405c0.534 3.092 2.158 5.866 4.542 7.846l12.779-15.385zM32.355 25.28l-0.013-0.074-19.719 3.338 0.012 0.074 19.72-3.338zM32.389 25.512c-0.208-1.51-0.721-2.957-1.502-4.255l-17.136 10.313c-0.61-1.014-1.012-2.147-1.175-3.331l19.813-2.727zM30.887 21.257c-0.781-1.297-1.812-2.416-3.024-3.297l-11.755 16.181c-0.943-0.685-1.747-1.557-2.357-2.571l17.136-10.313zM27.863 17.959c-1.212-0.88-2.583-1.507-4.030-1.848l-4.597 19.465c-1.121-0.265-2.186-0.75-3.128-1.435l11.755-16.181zM23.834 16.111c-1.446-0.342-2.946-0.394-4.411-0.154l3.232 19.737c-1.135 0.186-2.297 0.146-3.418-0.119l4.597-19.465zM19.423 15.958c-1.466 0.24-2.875 0.768-4.144 1.56l10.591 16.966c-0.986 0.616-2.080 1.025-3.215 1.211l-3.232-19.737zM15.279 17.518c-1.269 0.792-2.374 1.834-3.243 3.070l16.361 11.503c-0.679 0.966-1.54 1.777-2.527 2.392l-10.591-16.966zM12.036 20.588c-0.87 1.237-1.484 2.641-1.799 4.132l19.567 4.138c-0.247 1.168-0.728 2.267-1.407 3.233l-16.361-11.503zM10.236 24.721c-0.315 1.491-0.323 3.030-0.024 4.525l19.609-3.933c0.235 1.171 0.229 2.378-0.018 3.546l-19.567-4.138zM10.158 28.948l0.012 0.074 19.72-3.338-0.013-0.074-19.719 3.338zM10.173 29.039c0.628 3.67 2.551 6.969 5.386 9.33l12.796-15.371c0.791 0.659 1.349 1.598 1.532 2.669l-19.714 3.372zM15.559 38.368c2.832 2.357 6.395 3.633 10.055 3.632l-0.004-20c0.983-0 1.957 0.342 2.744 0.997l-12.796 15.371zM25.608 42c4.093 0.002 8.051-1.595 10.995-4.487l-14.016-14.267c0.83-0.816 1.923-1.246 3.030-1.246l-0.009 20zM36.603 37.513c2.95-2.898 4.639-6.863 4.647-11.033l-20-0.036c0.002-1.23 0.502-2.377 1.337-3.198l14.016 14.267zM41.25 26.462c0-3.221-0.996-6.226-2.678-8.7l-16.539 11.245c-0.487-0.716-0.783-1.605-0.783-2.546h20zM30.303 33.385h3.447v-20h-3.447v20zM33.75 33.385c4.26 0 8.376-1.665 11.435-4.677l-14.032-14.251c0.715-0.704 1.652-1.072 2.597-1.072v20zM45.185 28.708c3.064-3.017 4.815-7.142 4.815-11.477h-20c0-1.071 0.433-2.065 1.153-2.774l14.032 14.251zM50 17.231c0-4.335-1.75-8.46-4.815-11.477l-14.032 14.251c-0.72-0.709-1.153-1.704-1.153-2.774h20zM45.185 5.754c-3.059-3.012-7.175-4.677-11.435-4.677v20c-0.945 0-1.882-0.368-2.597-1.072l14.032-14.251z"></path>
</symbol>
<symbol id="icon-Button" viewBox="0 0 32 32">
<path stroke-linejoin="round" stroke-linecap="round" stroke-miterlimit="4" stroke-width="2.4" d="M25.333 5.333h-18.667c-1.473 0-2.667 1.194-2.667 2.667v18.667c0 1.473 1.194 2.667 2.667 2.667h18.667c1.473 0 2.667-1.194 2.667-2.667v-18.667c0-1.473-1.194-2.667-2.667-2.667z"></path>
<path stroke-linejoin="round" stroke-linecap="round" stroke-miterlimit="4" stroke-width="2.4" d="M21.333 2.667v5.333"></path>
<path stroke-linejoin="round" stroke-linecap="round" stroke-miterlimit="4" stroke-width="2.4" d="M10.667 2.667v5.333"></path>
<path stroke-linejoin="round" stroke-linecap="round" stroke-miterlimit="4" stroke-width="2.4" d="M4 13.333h24"></path>
</symbol>
<symbol id="icon-Vector" viewBox="0 0 40 32">
<path d="M19.38 0c-1.876 0-3.695 0.641-5.146 1.812s-2.446 2.801-2.814 4.613l-0.145 0.719c-0.039 0.161-0.044 0.328-0.016 0.49s0.090 0.318 0.18 0.457c0.091 0.139 0.209 0.259 0.347 0.352s0.295 0.158 0.459 0.19c0.165 0.032 0.334 0.032 0.498-0.002s0.32-0.099 0.458-0.193c0.138-0.094 0.255-0.214 0.345-0.354s0.15-0.296 0.177-0.459l0.148-0.716c0.277-1.343 1.051-2.537 2.171-3.351s2.507-1.189 3.892-1.054c1.385 0.135 2.67 0.772 3.606 1.787s1.456 2.335 1.459 3.706c0 1.469-0.593 2.878-1.647 3.917s-2.486 1.623-3.978 1.624h-18.125c-0.332 0-0.649 0.13-0.884 0.36s-0.366 0.544-0.366 0.87c0 0.326 0.132 0.639 0.366 0.87s0.552 0.36 0.884 0.36h18.125c2.12-0.051 4.136-0.916 5.617-2.41s2.311-3.499 2.311-5.587-0.828-4.094-2.308-5.589c-1.48-1.495-3.496-2.361-5.616-2.414zM33.75 11.077c-1.658 0-3.247 0.648-4.419 1.802s-1.831 2.719-1.831 4.351c0 0.326 0.132 0.639 0.366 0.87s0.552 0.36 0.884 0.36 0.649-0.13 0.884-0.36c0.235-0.231 0.366-0.544 0.366-0.87 0-0.73 0.22-1.444 0.632-2.051s0.998-1.080 1.683-1.36c0.685-0.279 1.439-0.353 2.167-0.21s1.396 0.494 1.92 1.011c0.524 0.516 0.882 1.174 1.026 1.891s0.070 1.459-0.213 2.133-0.765 1.251-1.381 1.657c-0.617 0.406-1.342 0.622-2.083 0.622h-32.5c-0.332 0-0.649 0.13-0.884 0.361s-0.366 0.544-0.366 0.87c0 0.326 0.132 0.64 0.366 0.87s0.552 0.36 0.884 0.36h24.375c0.829 0.002 1.623 0.327 2.208 0.906s0.913 1.361 0.911 2.177c-0.002 0.816-0.333 1.598-0.92 2.174s-1.383 0.898-2.212 0.897c-0.746 0.001-1.469-0.259-2.040-0.733s-0.952-1.132-1.078-1.856l-0.012-0.074c-0.023-0.163-0.078-0.32-0.163-0.462s-0.199-0.265-0.333-0.363-0.288-0.168-0.451-0.206c-0.163-0.039-0.332-0.044-0.497-0.017s-0.323 0.086-0.464 0.175c-0.141 0.088-0.263 0.204-0.358 0.339s-0.162 0.288-0.196 0.45c-0.034 0.161-0.035 0.328-0.003 0.489l0.013 0.074c0.222 1.299 0.905 2.479 1.927 3.33s2.317 1.317 3.655 1.317c1.493 0.001 2.926-0.582 3.983-1.621s1.652-2.447 1.655-3.918c0-1.14-0.35-2.198-0.947-3.077h3.447c1.658 0 3.247-0.648 4.419-1.802s1.831-2.719 1.831-4.351-0.658-3.197-1.831-4.351c-1.172-1.154-2.762-1.802-4.419-1.802z"></path>
<path d="M19.38 0l0.247-9.997-0.125-0.003-0.125 0 0.002 10zM11.42 6.425l-9.799-1.994-0.003 0.016 9.803 1.978zM11.275 7.143l9.724 2.331 0.042-0.176 0.036-0.178-9.803-1.978zM13.725 7.626l-9.794-2.017-0.038 0.184-0.031 0.185 9.863 1.647zM13.873 6.91v0zM25 7.998h10v-0.025l-10 0.025zM19.375 13.538v10h0.004l-0.004-10zM0 14.769v0zM19.375 16v10h0.121l0.121-0.003-0.241-9.997zM30 17.231v0zM0 22.154v0zM25.625 23.385l0.020-10h-0.020v10zM25.612 29.538l0.020-10-0.027 0 0.007 10zM22.495 26.949l-9.86 1.669 0.003 0.017 0.003 0.017 9.854-1.703zM22.483 26.875l-9.907 1.363 0.021 0.153 0.026 0.152 9.86-1.669zM20.017 27.279l9.86-1.669-0.025-0.149-0.030-0.148-9.805 1.966zM20.030 27.353l-9.86 1.669 0.003 0.017 9.857-1.686zM25.612 32l0.004-10h-0.006l0.002 10zM31.25 26.462l10 0.018v-0.018h-10zM30.303 23.385v-10h-18.892l10.622 15.623 8.27-5.623zM19.378-10c-4.146 0.001-8.183 1.414-11.424 4.030l12.561 15.563c-0.339 0.273-0.74 0.406-1.133 0.406l-0.004-20zM7.953-5.97c-3.244 2.618-5.496 6.287-6.333 10.401l19.598 3.988c-0.1 0.49-0.362 0.899-0.704 1.175l-12.561-15.563zM1.617 4.447l-0.145 0.719 19.605 3.955 0.145-0.719-19.605-3.955zM1.551 4.812c-0.356 1.485-0.405 3.028-0.143 4.534l19.705-3.425c0.205 1.18 0.167 2.39-0.112 3.553l-19.449-4.663zM1.407 9.346c0.262 1.506 0.827 2.936 1.656 4.207l16.753-10.925c0.648 0.993 1.091 2.112 1.296 3.293l-19.705 3.425zM3.063 13.553c0.829 1.271 1.901 2.353 3.148 3.19l11.152-16.602c0.969 0.651 1.806 1.494 2.453 2.487l-16.753 10.925zM6.211 16.744c1.246 0.837 2.642 1.413 4.103 1.701l3.864-19.623c1.133 0.223 2.216 0.67 3.185 1.32l-11.152 16.602zM10.314 18.445c1.461 0.288 2.966 0.283 4.425-0.014l-3.99-19.598c1.131-0.23 2.296-0.234 3.429-0.011l-3.864 19.623zM14.74 18.43c1.46-0.297 2.852-0.882 4.093-1.727l-11.259-16.53c0.965-0.657 2.045-1.111 3.177-1.341l3.99 19.598zM18.832 16.703c1.241-0.845 2.307-1.935 3.127-3.211l-16.824-10.815c0.641-0.997 1.472-1.846 2.437-2.503l11.259 16.53zM21.96 13.492c0.821-1.277 1.377-2.711 1.629-4.219l-19.727-3.295c0.197-1.181 0.633-2.304 1.274-3.302l16.824 10.815zM23.52 9.643l0.147-0.716-19.589-4.034-0.147 0.716 19.589 4.034zM23.666 8.93c-0.232 1.123-0.871 2.083-1.745 2.719l-11.756-16.18c-3.115 2.263-5.301 5.611-6.087 9.421l19.587 4.041zM21.921 11.649c-0.87 0.632-1.924 0.91-2.959 0.808l1.946-19.905c-3.805-0.372-7.632 0.656-10.743 2.916l11.756 16.18zM18.962 12.457c-1.036-0.101-2.029-0.58-2.773-1.387l14.704-13.557c-2.615-2.837-6.178-4.589-9.985-4.961l-1.946 19.905zM16.189 11.070c-0.748-0.811-1.186-1.895-1.189-3.048l20-0.050c-0.010-3.894-1.488-7.619-4.107-10.46l-14.704 13.557zM15 7.998c0-1.233 0.499-2.383 1.335-3.207l14.035 14.248c2.946-2.902 4.63-6.87 4.63-11.041h-20zM16.335 4.791c0.831-0.819 1.926-1.252 3.036-1.252l0.009 20c4.094-0.002 8.050-1.603 10.991-4.5l-14.035-14.248zM19.375 3.538h-18.125v20h18.125v-20zM1.25 3.538c-2.934 0-5.779 1.146-7.9 3.235l14.032 14.251c-1.652 1.627-3.861 2.514-6.132 2.514v-20zM-6.65 6.773c-2.127 2.094-3.35 4.967-3.35 7.996h20c0 2.376-0.96 4.623-2.618 6.255l-14.032-14.251zM-10 14.769c0 3.029 1.224 5.902 3.35 7.996l14.032-14.251c1.658 1.632 2.618 3.879 2.618 6.255h-20zM-6.65 22.765c2.121 2.089 4.966 3.235 7.9 3.235v-20c2.271 0 4.48 0.887 6.132 2.514l-14.032 14.251zM1.25 26h18.125v-20h-18.125v20zM19.616 25.997c4.68-0.113 9.161-2.022 12.478-5.367l-14.203-14.081c0.354-0.357 0.803-0.536 1.244-0.546l0.482 19.994zM32.094 20.63c3.321-3.35 5.208-7.878 5.21-12.624l-20-0.006c0-0.571 0.228-1.088 0.587-1.45l14.203 14.081zM37.303 8.006c0.002-4.747-1.883-9.276-5.202-12.628l-14.212 14.072c-0.358-0.362-0.586-0.88-0.586-1.45l20 0.006zM32.102-4.622c-3.314-3.347-7.794-5.259-12.474-5.375l-0.494 19.994c-0.44-0.011-0.89-0.19-1.243-0.547l14.212-14.072zM33.75 1.077c-4.26 0-8.376 1.665-11.435 4.677l14.032 14.251c-0.715 0.704-1.652 1.072-2.597 1.072v-20zM22.315 5.754c-3.064 3.017-4.815 7.142-4.815 11.477h20c0 1.071-0.433 2.065-1.153 2.774l-14.032-14.251zM17.5 17.231c0 3.029 1.224 5.902 3.35 7.996l14.032-14.251c1.658 1.632 2.618 3.879 2.618 6.255h-20zM20.85 25.227c2.121 2.089 4.966 3.235 7.9 3.235v-20c2.271 0 4.48 0.887 6.132 2.514l-14.032 14.251zM28.75 28.462c2.934 0 5.779-1.146 7.9-3.235l-14.032-14.251c1.652-1.627 3.861-2.514 6.132-2.514v20zM36.65 25.227c2.126-2.094 3.35-4.967 3.35-7.996h-20c0-2.376 0.96-4.623 2.618-6.255l14.032 14.251zM40 17.231c0 1.282-0.387 2.523-1.093 3.564l-16.549-11.231c-1.531 2.255-2.357 4.924-2.357 7.667h20zM38.907 20.795c-0.705 1.039-1.691 1.826-2.815 2.284l-7.553-18.519c-2.495 1.017-4.652 2.751-6.181 5.004l16.549 11.231zM36.091 23.079c-1.123 0.458-2.35 0.575-3.532 0.344l3.844-19.627c-2.637-0.516-5.372-0.253-7.865 0.764l7.553 18.519zM32.56 23.423c-1.183-0.232-2.29-0.807-3.174-1.677l14.032-14.251c-1.933-1.903-4.376-3.182-7.014-3.698l-3.844 19.627zM29.386 21.746c-0.885-0.872-1.506-2.002-1.76-3.255l19.604-3.96c-0.543-2.686-1.878-5.131-3.812-7.036l-14.032 14.251zM27.626 18.491c-0.253-1.254-0.122-2.553 0.371-3.725l18.435 7.755c1.060-2.521 1.341-5.304 0.798-7.991l-19.604 3.96zM27.997 14.766c0.492-1.17 1.315-2.145 2.34-2.819l10.992 16.708c2.259-1.486 4.043-3.614 5.103-6.134l-18.435-7.755zM30.337 11.947c1.024-0.673 2.211-1.024 3.413-1.024v20c2.685 0 5.323-0.783 7.58-2.268l-10.992-16.708zM33.75 10.923h-32.5v20h32.5v-20zM1.25 10.923c-2.934 0-5.779 1.146-7.9 3.235l14.032 14.251c-1.652 1.627-3.861 2.514-6.132 2.514v-20zM-6.65 14.158c-2.127 2.094-3.35 4.967-3.35 7.996h20c0 2.376-0.96 4.623-2.618 6.255l-14.032-14.251zM-10 22.154c0 3.029 1.224 5.902 3.35 7.996l14.032-14.251c1.658 1.632 2.618 3.879 2.618 6.255h-20zM-6.65 30.15c2.121 2.089 4.966 3.235 7.9 3.235v-20c2.271 0 4.48 0.887 6.132 2.514l-14.032 14.251zM1.25 33.385h24.375v-20h-24.375v20zM25.605 33.385c-1.774-0.003-3.504-0.699-4.803-1.983l14.061-14.223c-2.468-2.44-5.787-3.787-9.219-3.794l-0.039 20zM20.803 31.402c-1.304-1.289-2.063-3.068-2.059-4.954l20 0.041c0.007-3.519-1.407-6.864-3.881-9.309l-14.061 14.223zM18.744 26.447c0.004-1.887 0.77-3.662 2.078-4.945l14.004 14.279c2.483-2.435 3.911-5.775 3.918-9.293l-20-0.041zM20.822 21.502c1.303-1.278 3.036-1.967 4.81-1.964l-0.039 20c3.431 0.007 6.755-1.327 9.233-3.757l-14.004-14.279zM25.605 19.538c1.573-0.001 3.118 0.545 4.357 1.574l-12.779 15.385c2.38 1.977 5.37 3.043 8.437 3.041l-0.014-20zM29.962 21.113c1.243 1.032 2.103 2.491 2.387 4.133l-19.708 3.405c0.534 3.092 2.158 5.866 4.542 7.846l12.779-15.385zM32.355 25.28l-0.013-0.074-19.719 3.338 0.012 0.074 19.72-3.338zM32.389 25.512c-0.208-1.51-0.721-2.957-1.502-4.255l-17.136 10.313c-0.61-1.014-1.012-2.147-1.175-3.331l19.813-2.727zM30.887 21.257c-0.781-1.297-1.812-2.416-3.024-3.297l-11.755 16.181c-0.943-0.685-1.747-1.557-2.357-2.571l17.136-10.313zM27.863 17.959c-1.212-0.88-2.583-1.507-4.030-1.848l-4.597 19.465c-1.121-0.265-2.186-0.75-3.128-1.435l11.755-16.181zM23.834 16.111c-1.446-0.342-2.946-0.394-4.411-0.154l3.232 19.737c-1.135 0.186-2.297 0.146-3.418-0.119l4.597-19.465zM19.423 15.958c-1.466 0.24-2.875 0.768-4.144 1.56l10.591 16.966c-0.986 0.616-2.080 1.025-3.215 1.211l-3.232-19.737zM15.279 17.518c-1.269 0.792-2.374 1.834-3.243 3.070l16.361 11.503c-0.679 0.966-1.54 1.777-2.527 2.392l-10.591-16.966zM12.036 20.588c-0.87 1.237-1.484 2.641-1.799 4.132l19.567 4.138c-0.247 1.168-0.728 2.267-1.407 3.233l-16.361-11.503zM10.236 24.721c-0.315 1.491-0.323 3.030-0.024 4.525l19.609-3.933c0.235 1.171 0.229 2.378-0.018 3.546l-19.567-4.138zM10.158 28.948l0.012 0.074 19.72-3.338-0.013-0.074-19.719 3.338zM10.173 29.039c0.628 3.67 2.551 6.969 5.386 9.33l12.796-15.371c0.791 0.659 1.349 1.598 1.532 2.669l-19.714 3.372zM15.559 38.368c2.832 2.357 6.395 3.633 10.055 3.632l-0.004-20c0.983-0 1.957 0.342 2.744 0.997l-12.796 15.371zM25.608 42c4.093 0.002 8.051-1.595 10.995-4.487l-14.016-14.267c0.83-0.816 1.923-1.246 3.030-1.246l-0.009 20zM36.603 37.513c2.95-2.898 4.639-6.863 4.647-11.033l-20-0.036c0.002-1.23 0.502-2.377 1.337-3.198l14.016 14.267zM41.25 26.462c0-3.221-0.996-6.226-2.678-8.7l-16.539 11.245c-0.487-0.716-0.783-1.605-0.783-2.546h20zM30.303 33.385h3.447v-20h-3.447v20zM33.75 33.385c4.26 0 8.376-1.665 11.435-4.677l-14.032-14.251c0.715-0.704 1.652-1.072 2.597-1.072v20zM45.185 28.708c3.064-3.017 4.815-7.142 4.815-11.477h-20c0-1.071 0.433-2.065 1.153-2.774l14.032 14.251zM50 17.231c0-4.335-1.75-8.46-4.815-11.477l-14.032 14.251c-0.72-0.709-1.153-1.704-1.153-2.774h20zM45.185 5.754c-3.059-3.012-7.175-4.677-11.435-4.677v20c-0.945 0-1.882-0.368-2.597-1.072l14.032-14.251z"></path>
</symbol>
<symbol id="icon-Container-1" viewBox="0 0 32 32">
<path stroke-linejoin="round" stroke-linecap="round" stroke-miterlimit="4" stroke-width="2.24" d="M3 26v-7c0.003-1.060 0.426-2.076 1.175-2.825s1.765-1.172 2.825-1.175h18c1.060 0.003 2.076 0.426 2.825 1.175s1.172 1.765 1.175 2.825v7M24 15h-18v-6.5c0.002-0.662 0.266-1.297 0.734-1.766s1.103-0.732 1.766-0.734h15c0.662 0.002 1.297 0.266 1.766 0.734s0.732 1.103 0.734 1.766v6.5h-2z"></path>
<path stroke-linejoin="round" stroke-linecap="round" stroke-miterlimit="4" stroke-width="2.24" d="M3 26v-0.5c0.001-0.397 0.16-0.778 0.441-1.059s0.662-0.44 1.059-0.441h23c0.397 0.001 0.778 0.16 1.059 0.441s0.44 0.662 0.441 1.059v0.5M7 15v-1c0.002-0.53 0.213-1.038 0.587-1.413s0.883-0.586 1.413-0.587h5c0.53 0.002 1.038 0.213 1.413 0.587s0.586 0.883 0.587 1.413M16 14v1M16 14c0.001-0.53 0.213-1.038 0.587-1.413s0.883-0.586 1.413-0.587h5c0.53 0.002 1.038 0.213 1.413 0.587s0.586 0.883 0.587 1.413v1"></path>
</symbol>
<symbol id="icon-Route" viewBox="0 0 32 32">
<path d="M9.333 2.857c-1.052 0-1.905 0.853-1.905 1.905s0.853 1.905 1.905 1.905c1.052 0 1.905-0.853 1.905-1.905s-0.853-1.905-1.905-1.905zM5.524 4.762c0-2.104 1.706-3.81 3.81-3.81s3.809 1.706 3.809 3.81-1.706 3.81-3.809 3.81c-2.104 0-3.81-1.706-3.81-3.81z"></path>
<path d="M22.667 16.191c-1.052 0-1.905 0.853-1.905 1.905s0.853 1.905 1.905 1.905c1.052 0 1.905-0.853 1.905-1.905s-0.853-1.905-1.905-1.905zM18.857 18.095c0-2.104 1.706-3.809 3.809-3.809s3.81 1.706 3.81 3.809c0 2.104-1.706 3.81-3.81 3.81s-3.809-1.706-3.809-3.81z"></path>
<path d="M14.095 4.762c0-0.526 0.426-0.952 0.952-0.952h6c2.95 0 4.014 3.86 1.419 5.306l-11.052 6.288c-0.828 0.46-0.558 1.739 0.49 1.739h5.048c0.526 0 0.952 0.426 0.952 0.952s-0.426 0.952-0.952 0.952h-5.048c-2.95 0-4.014-3.86-1.419-5.306l11.052-6.288c0.828-0.46 0.558-1.739-0.49-1.739h-6c-0.526 0-0.952-0.426-0.952-0.952z"></path>
</symbol>
<symbol id="icon-Horizontal-container" viewBox="0 0 32 32">
<path stroke-linejoin="round" stroke-linecap="round" stroke-miterlimit="4" stroke-width="2.4" d="M25.333 20v-16c-6.421 6.125-6.697 11.092-6.667 16h6.667zM25.333 20v8h-1.333v-4M10.667 5.333v22.667M6.667 5.333v4c0 1.061 0.421 2.078 1.172 2.828s1.768 1.172 2.828 1.172c1.061 0 2.078-0.421 2.828-1.172s1.172-1.768 1.172-2.828v-4"></path>
</symbol>
<symbol id="icon-Vertical-container" viewBox="0 0 32 32">
<path d="M26.36 9.64l0.013-0.013-4.96-4.96-1.413 1.413 2.813 2.813c-1.253 0.48-2.147 1.68-2.147 3.107 0 0.438 0.086 0.871 0.254 1.276s0.413 0.772 0.723 1.081c0.625 0.625 1.473 0.976 2.357 0.976 0.48 0 0.92-0.107 1.333-0.28v9.613c0 0.354-0.14 0.693-0.391 0.943s-0.589 0.391-0.943 0.391c-0.354 0-0.693-0.14-0.943-0.391s-0.391-0.589-0.391-0.943v-6c0-0.707-0.281-1.386-0.781-1.886s-1.178-0.781-1.886-0.781h-1.333v-9.333c0-0.707-0.281-1.386-0.781-1.886s-1.178-0.781-1.886-0.781h-8c-0.707 0-1.386 0.281-1.886 0.781s-0.781 1.178-0.781 1.886v21.333h13.333v-10h2v6.667c0 0.884 0.351 1.732 0.976 2.357s1.473 0.976 2.357 0.976c0.438 0 0.871-0.086 1.276-0.254s0.772-0.413 1.081-0.723c0.309-0.309 0.555-0.677 0.723-1.081s0.254-0.838 0.254-1.276v-12.667c0-0.92-0.373-1.76-0.973-2.36zM16 18v7.333h-8v-9.333h8v2zM16 13.333h-8v-6.667h8v6.667zM24 13.333c-0.354 0-0.693-0.14-0.943-0.39s-0.391-0.589-0.391-0.943 0.14-0.693 0.391-0.943c0.25-0.25 0.589-0.39 0.943-0.39s0.693 0.14 0.943 0.39c0.25 0.25 0.391 0.589 0.391 0.943s-0.14 0.693-0.391 0.943c-0.25 0.25-0.589 0.39-0.943 0.39z"></path>
</symbol>
<symbol id="icon-Container" viewBox="0 0 32 32">
<path stroke-linejoin="round" stroke-linecap="round" stroke-miterlimit="4" stroke-width="2.4" d="M22.667 14.667h2c0.53 0 1.039-0.211 1.414-0.586s0.586-0.884 0.586-1.414-0.211-1.039-0.586-1.414c-0.375-0.375-0.884-0.586-1.414-0.586h-2v6.667M22.667 22.667v5.333h1.333c0.707 0 1.386-0.281 1.886-0.781s0.781-1.178 0.781-1.886c0-0.707-0.281-1.385-0.781-1.886s-1.178-0.781-1.886-0.781h-1.333zM4 6.667c0 0.707 0.281 1.386 0.781 1.886s1.178 0.781 1.886 0.781c0.707 0 1.386-0.281 1.886-0.781s0.781-1.178 0.781-1.886c0-0.707-0.281-1.386-0.781-1.886s-1.178-0.781-1.886-0.781c-0.707 0-1.386 0.281-1.886 0.781s-0.781 1.178-0.781 1.886z"></path>
<path stroke-linejoin="round" stroke-linecap="round" stroke-miterlimit="4" stroke-width="2.4" d="M6.667 9.333v4c0 0.354 0.14 0.693 0.391 0.943s0.589 0.391 0.943 0.391h4M12 14.667v9.333c0 0.354 0.14 0.693 0.391 0.943s0.589 0.39 0.943 0.39h4M12 14.667h5.333"></path>
</symbol>
<symbol id="icon-Users" viewBox="0 0 32 32">
<path d="M9.067 24.133h-4.4c-0.267 0-0.4-0.133-0.533-0.267s-0.267-0.4-0.133-0.667c0.8-2.267 2.8-3.6 5.067-3.6 2.8 0 5.067-2.4 5.067-5.2s-2.267-5.467-5.067-5.467c-2.8 0-5.067 2.4-5.067 5.333 0 1.333 0.533 2.667 1.333 3.6-1.733 0.933-3.067 2.4-3.867 4.4-0.267 0.933-0.133 2.133 0.533 3.067s1.6 1.467 2.667 1.467h4.4c0.8 0 1.333-0.533 1.333-1.333s-0.533-1.333-1.333-1.333zM6.667 14.267c0-1.467 1.067-2.533 2.4-2.533s2.4 1.2 2.4 2.533c0 1.467-1.067 2.533-2.4 2.533s-2.4-1.2-2.4-2.533z"></path>
<path d="M30.533 21.467c-0.933-2.533-2.8-4.4-4.933-5.467 1.2-1.067 1.867-2.667 1.867-4.533 0-3.467-2.667-6.267-5.867-6.267s-5.867 2.8-5.867 6.267c0 1.733 0.667 3.333 1.867 4.533-2.133 1.067-4 2.933-4.933 5.467-0.667 1.2-0.4 2.533 0.267 3.6s1.867 1.6 3.067 1.6h11.067c1.2 0 2.4-0.667 3.067-1.6 0.8-1.067 0.933-2.4 0.4-3.6zM18.267 11.6c0-2 1.467-3.6 3.2-3.6s3.2 1.6 3.2 3.6-1.467 3.6-3.2 3.6c-1.733 0-3.2-1.733-3.2-3.6zM27.867 23.6c-0.133 0.133-0.4 0.533-0.8 0.533h-11.067c-0.533 0-0.8-0.4-0.8-0.533-0.133-0.133-0.4-0.667-0.133-1.2 1.067-2.8 3.733-4.667 6.533-4.667s5.467 1.867 6.533 4.667c0.133 0.533-0.133 1.067-0.267 1.2z"></path>
</symbol>
</defs>
</svg>
